<svg width="113" height="113" viewBox="0 0 113 113" fill="none" xmlns="http://www.w3.org/2000/svg">
<path d="M111.793 112.5H1.20711L56.5 57.2071L72.6949 73.402L101.196 101.903L109.601 110.308L111.793 112.5ZM55.7929 56.5L0.5 111.793V111.784V111.723V111.661V111.598V111.534V111.468V111.4V111.331V111.261V111.19V111.117V111.043V110.967V110.89V110.812V110.732V110.651V110.568V110.485V110.4V110.313V110.226V110.137V110.046V109.955V109.862V109.767V109.672V109.575V109.477V109.377V109.277V109.174V109.071V108.967V108.861V108.754V108.645V108.536V108.425V108.313V108.2V108.085V107.969V107.852V107.734V107.614V107.494V107.372V107.249V107.124V106.999V106.872V106.744V106.615V106.485V106.353V106.221V106.087V105.952V105.816V105.679V105.54V105.401V105.26V105.118V104.975V104.831V104.685V104.539V104.392V104.243V104.093V103.942V103.79V103.637V103.483V103.328V103.172V103.014V102.856V102.696V102.535V102.374V102.211V102.047V101.882V101.716V101.549V101.381V101.212V101.042V100.871V100.699V100.526V100.352V100.177V100V99.8232V99.645V99.4659V99.2857V99.1045V98.9224V98.7393V98.5552V98.3701V98.1841V97.9971V97.8092V97.6203V97.4304V97.2396V97.0479V96.8553V96.6617V96.4671V96.2717V96.0753V95.878V95.6798V95.4807V95.2807V95.0798V94.878V94.6754V94.4718V94.2673V94.062V93.8558V93.6487V93.4408V93.232V93.0223V92.8118V92.6005V92.3883V92.1752V91.9614V91.7467V91.5311V91.3148V91.0976V90.8796V90.6608V90.4412V90.2208V89.9996V89.7776V89.5548V89.3312V89.1069V88.8817V88.6558V88.4292V88.2017V87.9735V87.7446V87.5149V87.2844V87.0532V86.8213V86.5886V86.3552V86.121V85.8862V85.6506V85.4143V85.1773V84.9396V84.7012V84.4621V84.2223V83.9818V83.7407V83.4988V83.2563V83.0131V82.7692V82.5247V82.2795V82.0337V81.7872V81.54V81.2922V81.0438V80.7947V80.5451V80.2947V80.0438V79.7922V79.5401V79.2873V79.0339V78.7799V78.5253V78.2701V78.0144V77.758V77.5011V77.2436V76.9855V76.7268V76.4676V76.2078V75.9475V75.6866V75.4252V75.1632V74.9007V74.6377V74.3741V74.11V73.8454V73.5803V73.3146V73.0485V72.7818V72.5146V72.247V71.9788V71.7102V71.4411V71.1714V70.9014V70.6308V70.3598V70.0883V69.8164V69.544V69.2711V68.9978V68.7241V68.4499V68.1753V67.9003V67.6248V67.3489V67.0726V66.7959V66.5188V66.2412V65.9633V65.685V65.4063V65.1272V64.8477V64.5678V64.2876V64.007V63.726V63.4446V63.1629V62.8809V62.5984V62.3157V62.0326V61.7492V61.4654V61.1813V60.8969V60.6121V60.3271V60.0417V59.756V59.4701V59.1838V58.8972V58.6103V58.3232V58.0357V57.748V57.46V57.1717V56.8832V56.5944V56.3054V56.016V55.7265V55.4367V55.1466V54.8564V54.5658V54.2751V53.9841V53.693V53.4015V53.1099V52.8181V52.5261V52.2339V51.9414V51.6488V51.356V51.063V50.7699V50.4765V50.183V49.8894V49.5955V49.3015V49.0074V48.7131V48.4186V48.1241V47.8293V47.5345V47.2395V46.9444V46.6492V46.3538V46.0584V45.7628V45.4672V45.1714V44.8756V44.5796V44.2836V43.9875V43.6913V43.395V43.0987V42.8023V42.5058V42.2093V41.9127V41.6161V41.3194V41.0227V40.726V40.4292V40.1324V39.8356V39.5387V39.2418V38.945V38.6481V38.3512V38.0543V37.7574V37.4606V37.1637V36.8669V36.5701V36.2733V35.9765V35.6798V35.3831V35.0865V34.7899V34.4933V34.1969V33.9004V33.6041V33.3078V33.0116V32.7154V32.4193V32.1234V31.8275V31.5317V31.236V30.9404V30.6449V30.3495V30.0543V29.7591V29.4641V29.1692V28.8744V28.5798V28.2853V27.991V27.6968V27.4027V27.1088V26.8151V26.5215V26.2281V25.9349V25.6418V25.349V25.0563V24.7638V24.4715V24.1794V23.8875V23.5958V23.3043V23.0131V22.722V22.4312V22.1406V21.8502V21.5601V21.2702V20.9806V20.6912V20.402V20.1131V19.8245V19.5362V19.2481V18.9602V18.6727V18.3854V18.0985V17.8118V17.5254V17.2393V16.9535V16.668V16.3829V16.098V15.8135V15.5292V15.2454V14.9618V14.6786V14.3957V14.1132V13.831V13.5492V13.2677V12.9866V12.7058V12.4255V12.1455V11.8658V11.5866V11.3077V11.0293V10.7512V10.4735V10.1962V9.91938V9.64293V9.36689V9.09128V8.81608V8.54132V8.26699V7.99309V7.71964V7.44663V7.17407V6.90196V6.63031V6.35912V6.0884V5.81815V5.54837V5.27907V5.01026V4.74193V4.47409V4.20675V3.9399V3.67356V3.40773V3.14241V2.8776V2.61332V2.34955V2.08632V1.82362V1.56146V1.29984V1.20711L55.7929 56.5ZM73.402 72.6949L57.2071 56.5L112.5 1.20711V111.793L110.308 109.601L101.903 101.196L73.402 72.6949ZM111.793 0.5L56.5 55.7929L1.20711 0.5H1.29984H1.56146H1.82362H2.08632H2.34955H2.61332H2.8776H3.14241H3.40773H3.67356H3.9399H4.20675H4.47409H4.74193H5.01026H5.27907H5.54837H5.81815H6.0884H6.35912H6.63031H6.90196H7.17407H7.44663H7.71964H7.99309H8.26699H8.54132H8.81608H9.09128H9.36689H9.64293H9.91938H10.1962H10.4735H10.7512H11.0293H11.3077H11.5866H11.8658H12.1455H12.4255H12.7058H12.9866H13.2677H13.5492H13.831H14.1132H14.3957H14.6786H14.9618H15.2454H15.5292H15.8135H16.098H16.3829H16.668H16.9535H17.2393H17.5254H17.8118H18.0985H18.3854H18.6727H18.9602H19.2481H19.5362H19.8245H20.1131H20.402H20.6912H20.9806H21.2702H21.5601H21.8502H22.1406H22.4312H22.722H23.0131H23.3043H23.5958H23.8875H24.1794H24.4715H24.7638H25.0563H25.349H25.6418H25.9349H26.2281H26.5215H26.8151H27.1088H27.4027H27.6968H27.991H28.2853H28.5798H28.8744H29.1692H29.4641H29.7591H30.0543H30.3495H30.6449H30.9404H31.236H31.5317H31.8275H32.1234H32.4193H32.7154H33.0116H33.3078H33.6041H33.9004H34.1969H34.4933H34.7899H35.0865H35.3831H35.6798H35.9765H36.2733H36.5701H36.8669H37.1637H37.4606H37.7574H38.0543H38.3512H38.6481H38.945H39.2418H39.5387H39.8356H40.1324H40.4292H40.726H41.0227H41.3194H41.6161H41.9127H42.2093H42.5058H42.8023H43.0987H43.395H43.6913H43.9875H44.2836H44.5796H44.8756H45.1714H45.4672H45.7628H46.0584H46.3538H46.6492H46.9444H47.2395H47.5345H47.8293H48.1241H48.4186H48.7131H49.0074H49.3015H49.5955H49.8894H50.183H50.4765H50.7699H51.063H51.356H51.6488H51.9414H52.2339H52.5261H52.8181H53.1099H53.4015H53.693H53.9841H54.2751H54.5658H54.8564H55.1466H55.4367H55.7265H56.016H56.3054H56.5944H56.8832H57.1717H57.46H57.748H58.0357H58.3232H58.6103H58.8972H59.1838H59.4701H59.756H60.0417H60.3271H60.6121H60.8969H61.1813H61.4654H61.7492H62.0326H62.3157H62.5985H62.8809H63.1629H63.4446H63.726H64.007H64.2876H64.5678H64.8477H65.1272H65.4063H65.685H65.9633H66.2412H66.5188H66.7959H67.0726H67.3489H67.6248H67.9003H68.1753H68.4499H68.7241H68.9978H69.2711H69.544H69.8164H70.0883H70.3598H70.6308H70.9014H71.1714H71.4411H71.7102H71.9788H72.247H72.5146H72.7818H73.0485H73.3146H73.5803H73.8454H74.11H74.3741H74.6377H74.9007H75.1632H75.4252H75.6866H75.9475H76.2078H76.4676H76.7268H76.9855H77.2436H77.5011H77.758H78.0144H78.2701H78.5253H78.7799H79.0339H79.2873H79.5401H79.7922H80.0438H80.2947H80.5451H80.7947H81.0438H81.2922H81.54H81.7872H82.0337H82.2795H82.5247H82.7692H83.0131H83.2563H83.4988H83.7407H83.9818H84.2223H84.4621H84.7012H84.9396H85.1773H85.4143H85.6506H85.8862H86.121H86.3552H86.5886H86.8213H87.0532H87.2844H87.5149H87.7446H87.9735H88.2017H88.4292H88.6558H88.8817H89.1069H89.3312H89.5548H89.7776H89.9996H90.2208H90.4412H90.6608H90.8796H91.0976H91.3148H91.5311H91.7467H91.9614H92.1752H92.3883H92.6005H92.8118H93.0223H93.232H93.4408H93.6487H93.8558H94.062H94.2673H94.4718H94.6754H94.878H95.0798H95.2807H95.4807H95.6798H95.878H96.0753H96.2717H96.4671H96.6617H96.8553H97.0479H97.2396H97.4304H97.6203H97.8092H97.9971H98.1841H98.3701H98.5552H98.7393H98.9224H99.1045H99.2857H99.4659H99.645H99.8232H100H100.177H100.352H100.526H100.699H100.871H101.042H101.212H101.381H101.549H101.716H101.882H102.047H102.211H102.374H102.535H102.696H102.856H103.014H103.172H103.328H103.483H103.637H103.79H103.942H104.093H104.243H104.392H104.539H104.685H104.831H104.975H105.118H105.26H105.401H105.54H105.679H105.816H105.952H106.087H106.221H106.353H106.485H106.615H106.744H106.872H106.999H107.124H107.249H107.372H107.494H107.614H107.734H107.852H107.969H108.085H108.2H108.313H108.425H108.536H108.645H108.754H108.861H108.967H109.071H109.174H109.277H109.377H109.477H109.575H109.672H109.767H109.862H109.955H110.046H110.137H110.226H110.313H110.4H110.485H110.568H110.651H110.732H110.812H110.89H110.967H111.043H111.117H111.19H111.261H111.331H111.4H111.468H111.534H111.598H111.661H111.723H111.784H111.793Z" fill="white" stroke="#333333"/>
<path d="M56.5 112C25.8482 112 1 87.1518 1 56.5H-1C-1 88.2564 24.7436 114 56.5 114V112ZM112 56.5C112 87.1518 87.1518 112 56.5 112V114C88.2564 114 114 88.2564 114 56.5H112ZM56.5 1C87.1518 1 112 25.8482 112 56.5H114C114 24.7436 88.2564 -1 56.5 -1V1ZM56.5 -1C24.7436 -1 -1 24.7436 -1 56.5H1C1 25.8482 25.8482 1 56.5 1V-1Z" fill="#333333"/>
</svg>
