<svg width="50" height="46" viewBox="0 0 50 46" fill="none" xmlns="http://www.w3.org/2000/svg">
<g clip-path="url(#clip0_199_1357)">
<path d="M0.375244 46V36.4145C5.99491 31.7467 9.38387 32.7679 11.0462 34.1223C7.14243 34.7057 2.30567 42.2839 0.375244 46Z" fill="#46914D"/>
<path d="M49.9229 46V36.4145C44.3032 31.7467 40.9143 32.7679 39.252 34.1223C43.1556 34.7057 47.9924 42.2839 49.9229 46Z" fill="#46914D"/>
<path d="M0.321687 36.1019L0.268066 26.3602C6.83149 24.9014 10.7781 30.632 11.9578 33.7056C7.19612 30.5799 2.25211 34.0007 0.321687 36.1019Z" fill="#EEAC49"/>
<path d="M49.9227 36.1019L49.9763 26.3602C43.4129 24.9014 39.4663 30.632 38.2866 33.7056C43.0483 30.5799 47.9923 34.0007 49.9227 36.1019Z" fill="#EEAC49"/>
<path d="M49.9999 12.6591V25.8392C42.7072 24.6931 39.758 28.9128 37.8275 32.8721C36.4691 31.5176 34.1812 27.3187 35.8971 21.359C37.6131 15.3994 46.014 13.0759 49.9999 12.6591Z" fill="#052F61"/>
<path d="M38.1794 32.299C41.8257 20.6296 45.204 14.3261 49.9763 12.6591C45.8474 11.7735 35.8735 12.6591 31.2084 26.256C27.562 36.8834 23.594 42.5617 19.7332 42.9785C31.2084 46.4167 35.6562 40.3738 38.1794 32.299Z" fill="#81ADC6"/>
<path d="M0.160889 12.6591V25.8392C7.45358 24.6931 10.4028 28.9128 12.3332 32.8721C13.6917 31.5176 15.9796 27.3187 14.2637 21.359C12.5478 15.3994 4.14685 13.0759 0.160889 12.6591Z" fill="#81ADC6"/>
<path d="M12.1188 32.299C8.47242 20.6296 4.93331 14.3261 0.160889 12.6591C4.28984 11.7735 14.4245 12.6591 19.0897 26.256C22.736 36.8834 26.7042 42.5617 30.565 42.9785C19.0897 46.4167 14.6419 40.3738 12.1188 32.299Z" fill="#052F61"/>
<path d="M7.57872 6.10352e-05H3.46756C1.55248 6.10352e-05 0 1.50938 0 3.37122V8.08986C0 9.9517 1.55248 11.461 3.46756 11.461H7.57872C9.49381 11.461 11.0463 9.9517 11.0463 8.08986V3.37122C11.0463 1.50938 9.49381 6.10352e-05 7.57872 6.10352e-05Z" fill="#81ADC6"/>
<path d="M10.242 10.3148C2.90641 9.81473 0.75077 2.65685 3.80726 0H7.93623C9.86664 -1.62521e-06 11.0463 1.92752 11.0463 3.07362V8.28312C11.0463 9.37946 10.4207 10.0891 10.242 10.3148Z" fill="#052F61"/>
<path d="M42.3976 0H46.5088C48.4238 0 49.9763 1.50932 49.9763 3.37116V8.0898C49.9763 9.95164 48.4238 11.461 46.5088 11.461H42.3976C40.4825 11.461 38.93 9.95164 38.93 8.0898V3.37116C38.93 1.50932 40.4825 0 42.3976 0Z" fill="#052F61"/>
<path d="M39.7345 10.3148C47.0701 9.81473 49.2258 2.65685 46.1693 0H42.0404C40.1099 -1.62521e-06 38.9302 1.92752 38.9302 3.07362V8.28312C38.9302 9.37946 39.5558 10.0891 39.7345 10.3148Z" fill="#81ADC6"/>
</g>
<defs>
<clipPath id="clip0_199_1357">
<rect width="50" height="46" fill="white"/>
</clipPath>
</defs>
</svg>
