<svg width="79" height="78" viewBox="0 0 79 78" fill="none" xmlns="http://www.w3.org/2000/svg">
<path d="M43.4501 11.7C43.4501 10.6656 43.0339 9.67366 42.2931 8.94227C41.5524 8.21088 40.5477 7.79999 39.5001 7.79999C38.4524 7.79999 37.4477 8.21088 36.707 8.94227C35.9662 9.67366 35.55 10.6656 35.55 11.7V15.6C35.55 16.6343 35.9662 17.6263 36.707 18.3577C37.4477 19.0891 38.4524 19.5 39.5001 19.5C40.5477 19.5 41.5524 19.0891 42.2931 18.3577C43.0339 17.6263 43.4501 16.6343 43.4501 15.6V11.7Z" fill="#DA880C"/>
<path d="M61.8451 22.4523C62.5647 21.7168 62.9628 20.7316 62.9538 19.709C62.9448 18.6865 62.5294 17.7083 61.797 16.9852C61.0647 16.2621 60.074 15.852 59.0383 15.8431C58.0026 15.8342 57.0048 16.2273 56.2599 16.9377L53.4672 19.695C52.7477 20.4306 52.3495 21.4157 52.3585 22.4383C52.3675 23.4608 52.783 24.439 53.5153 25.1621C54.2477 25.8852 55.2384 26.2953 56.2741 26.3042C57.3097 26.3131 58.3075 25.92 59.0525 25.2096L61.8451 22.4523Z" fill="#DA880C"/>
<path d="M71.1 39C71.1 40.0343 70.6838 41.0263 69.9431 41.7577C69.2023 42.4891 68.1976 42.9 67.15 42.9H63.2C62.1524 42.9 61.1477 42.4891 60.4069 41.7577C59.6662 41.0263 59.25 40.0343 59.25 39C59.25 37.9656 59.6662 36.9737 60.4069 36.2423C61.1477 35.5109 62.1524 35.1 63.2 35.1H67.15C68.1976 35.1 69.2023 35.5109 69.9431 36.2423C70.6838 36.9737 71.1 37.9656 71.1 39Z" fill="#DA880C"/>
<path d="M19.9475 25.2096C20.3119 25.5821 20.7477 25.8792 21.2296 26.0836C21.7115 26.288 22.2299 26.3956 22.7543 26.4001C23.2788 26.4046 23.799 26.3059 24.2844 26.1098C24.7698 25.9137 25.2109 25.6241 25.5817 25.2579C25.9526 24.8918 26.2459 24.4563 26.4445 23.977C26.6431 23.4977 26.7431 22.9842 26.7385 22.4663C26.734 21.9485 26.625 21.4367 26.418 20.9609C26.211 20.4851 25.91 20.0548 25.5328 19.695L22.7401 16.9377C21.9952 16.2273 20.9974 15.8342 19.9617 15.8431C18.926 15.852 17.9353 16.2621 17.2029 16.9852C16.4706 17.7083 16.0552 18.6865 16.0462 19.709C16.0372 20.7316 16.4353 21.7168 17.1548 22.4523L19.9475 25.2096Z" fill="#DA880C"/>
<path d="M19.75 39C19.75 40.0343 19.3339 41.0263 18.5931 41.7577C17.8523 42.4891 16.8476 42.9 15.8 42.9H11.85C10.8024 42.9 9.79772 42.4891 9.05695 41.7577C8.31618 41.0263 7.90002 40.0343 7.90002 39C7.90002 37.9656 8.31618 36.9737 9.05695 36.2423C9.79772 35.5109 10.8024 35.1 11.85 35.1H15.8C16.8476 35.1 17.8523 35.5109 18.5931 36.2423C19.3339 36.9737 19.75 37.9656 19.75 39Z" fill="#DA880C"/>
<path d="M31.6 62.4V58.5H47.4V62.4C47.4 64.4687 46.5677 66.4526 45.0861 67.9154C43.6046 69.3782 41.5952 70.2 39.5 70.2C37.4048 70.2 35.3954 69.3782 33.9138 67.9154C32.4323 66.4526 31.6 64.4687 31.6 62.4Z" fill="#DA880C"/>
<path d="M47.4001 54.6C47.4593 53.274 48.2217 52.0806 49.2842 51.2499C51.8623 49.2424 53.7429 46.4917 54.6647 43.3803C55.5864 40.2688 55.5035 36.9511 54.4275 33.8884C53.3514 30.8256 51.3357 28.1698 48.6605 26.2903C45.9853 24.4108 42.7835 23.4008 39.5001 23.4008C36.2167 23.4008 33.0149 24.4108 30.3396 26.2903C27.6644 28.1698 25.6487 30.8256 24.5727 33.8884C23.4966 36.9511 23.4137 40.2688 24.3355 43.3803C25.2572 46.4917 27.1378 49.2424 29.7159 51.2499C30.7824 52.0806 31.5408 53.274 31.5961 54.6H47.404H47.4001Z" fill="#DA880C"/>
</svg>
