<svg width="62" height="55" viewBox="0 0 62 55" fill="none" xmlns="http://www.w3.org/2000/svg">
<path d="M40.6875 36.651C43.183 36.651 45.2083 38.7034 45.2083 41.2323V46.4734L45.1877 46.7562C44.3868 52.3245 39.4527 55 31.1731 55C22.9245 55 17.9102 52.3559 16.8278 46.853L16.7917 46.4682V41.2323C16.7917 38.7034 18.817 36.651 21.3125 36.651H40.6875ZM41.9637 20.9434H57.4792C59.9747 20.9434 62 22.9959 62 25.5248V30.7659L61.9793 31.0486C61.1785 36.6169 56.2443 39.2924 47.9647 39.2924L47.5308 39.2872C47.1325 37.8524 46.305 36.5781 45.1622 35.6399C44.0194 34.7017 42.6176 34.1458 41.1499 34.0487L40.6875 34.033H38.3057C39.6556 32.93 40.7443 31.5343 41.4918 29.9486C42.2393 28.3629 42.6265 26.6276 42.625 24.8703C42.625 23.4933 42.3925 22.1738 41.9637 20.9434ZM4.52083 20.9434H20.0363C19.6075 22.1738 19.375 23.4933 19.375 24.8703C19.375 28.3521 20.8682 31.4858 23.2397 33.6403L23.6943 34.033H21.3125C18.0523 34.033 15.3037 36.2583 14.4667 39.2951L14.3814 39.2924C6.13283 39.2924 1.11858 36.6483 0.0361665 31.1455L0 30.7606V25.5248C0 22.9959 2.02533 20.9434 4.52083 20.9434ZM31 15.7076C33.398 15.7076 35.6978 16.6729 37.3934 18.3913C39.0891 20.1096 40.0417 22.4402 40.0417 24.8703C40.0417 27.3004 39.0891 29.631 37.3934 31.3493C35.6978 33.0677 33.398 34.033 31 34.033C28.602 34.033 26.3022 33.0677 24.6066 31.3493C22.9109 29.631 21.9583 27.3004 21.9583 24.8703C21.9583 22.4402 22.9109 20.1096 24.6066 18.3913C26.3022 16.6729 28.602 15.7076 31 15.7076ZM47.7917 0C50.1897 0 52.4894 0.965358 54.1851 2.6837C55.8807 4.40205 56.8333 6.73263 56.8333 9.16274C56.8333 11.5928 55.8807 13.9234 54.1851 15.6418C52.4894 17.3601 50.1897 18.3255 47.7917 18.3255C45.3937 18.3255 43.0939 17.3601 41.3982 15.6418C39.7026 13.9234 38.75 11.5928 38.75 9.16274C38.75 6.73263 39.7026 4.40205 41.3982 2.6837C43.0939 0.965358 45.3937 0 47.7917 0ZM14.2083 0C16.6063 0 18.9061 0.965358 20.6018 2.6837C22.2974 4.40205 23.25 6.73263 23.25 9.16274C23.25 11.5928 22.2974 13.9234 20.6018 15.6418C18.9061 17.3601 16.6063 18.3255 14.2083 18.3255C11.8103 18.3255 9.51055 17.3601 7.81491 15.6418C6.11927 13.9234 5.16667 11.5928 5.16667 9.16274C5.16667 6.73263 6.11927 4.40205 7.81491 2.6837C9.51055 0.965358 11.8103 0 14.2083 0Z" fill="#5D90CD"/>
</svg>
