<svg width="74" height="68" viewBox="0 0 74 68" fill="none" xmlns="http://www.w3.org/2000/svg">
<path d="M56.1623 25.199H38.6699V32.5495C38.6699 37.7605 34.9528 42.0002 30.3841 42.0002C25.8154 42.0002 22.0982 37.7605 22.0982 32.5495V16.5884L14.6295 21.7075C12.4084 23.217 11.0504 25.9603 11.0504 28.9005V35.1091L1.84393 41.1733C0.0831817 42.3284 -0.526749 44.9011 0.497474 46.9093L9.70398 65.1019C10.7167 67.1102 12.9723 67.7927 14.733 66.6376L26.6324 58.8014H42.3525C46.4149 58.8014 49.7177 55.0343 49.7177 50.4008H51.559C53.596 50.4008 55.2416 48.5238 55.2416 46.2005V37.7999H56.1623C57.6929 37.7999 58.9243 36.3954 58.9243 34.6497V28.3492C58.9243 26.6035 57.6929 25.199 56.1623 25.199ZM73.1598 20.2899L63.9533 2.09731C62.9406 0.0890422 60.685 -0.593507 58.9243 0.561577L47.0248 8.39777H35.2635C33.8826 8.39777 32.5361 8.84406 31.3623 9.67099L27.5071 12.4143C26.4253 13.1756 25.7808 14.5276 25.7808 15.9714V32.5495C25.7808 35.4504 27.8408 37.7999 30.3841 37.7999C32.9274 37.7999 34.9873 35.4504 34.9873 32.5495V20.9987H56.1623C59.7183 20.9987 62.6069 24.2933 62.6069 28.3492V32.0901L71.8134 26.0259C73.5741 24.8577 74.1725 22.2982 73.1598 20.2899Z" fill="#345707"/>
</svg>
