<svg width="489" height="491" viewBox="0 0 489 491" fill="none" xmlns="http://www.w3.org/2000/svg">
<path d="M332.128 57.5197L333.599 58.3374C335.162 54.834 336.076 52.9861 338.01 49.5078L350.862 26.3881L350.93 26.4708L351.752 68.4292L358.519 72.1907C360.047 68.668 360.961 66.8202 362.894 63.3419L371.918 47.1096C373.842 43.6486 374.929 41.897 377.125 38.7226L375.619 37.8856C374.047 41.4063 373.168 43.2734 371.243 46.7344L358.381 69.8714L358.341 69.781L357.466 27.7938L350.734 24.0515C349.162 27.5722 348.248 29.4201 346.324 32.8811L337.3 49.1133C335.366 52.5917 334.279 54.3433 332.128 57.5197Z" fill="#DA880C"/>
<path d="M398.197 54.2882C395.95 57.4283 394.69 59.0628 392.067 62.0296L379.767 75.9439C377.131 78.9256 375.663 80.3765 372.835 82.9772L390.844 98.8974L394.14 97.5302C388.397 95.1485 385.914 93.3235 382.265 90.0975L378.705 86.9502L391.189 72.8283L393.31 74.7035C395.209 76.3821 397.152 78.1 400.16 81.3935L401.393 79.9991C397.755 77.4176 395.812 75.6997 393.913 74.0212L391.792 72.1459L402.86 59.626L406.02 62.4192C407.845 64.0322 410.855 67.1432 412.473 71.3218L416.517 70.4838L398.197 54.2882Z" fill="#DA880C"/>
<path d="M457.32 132.566C459.076 132.031 460.029 131.643 462.514 131.317L461.624 129.959C459.721 130.993 458.577 131.269 456.771 131.837L425.598 141.773L446.876 117.419C447.923 116.235 448.522 115.488 449.457 114.71C449.996 114.594 450.628 114.511 451.425 114.391L446.499 106.872C445.447 108.697 444.713 109.746 443.078 111.622L438.107 117.293L414.509 124.846L435.765 100.459C437.289 98.7745 437.916 97.9613 439.783 96.6199L435.378 89.8957C434.358 91.7711 433.625 92.8196 431.957 94.6459L409.532 120.32L413.807 126.845C414.644 125.847 415.179 125.544 416.352 125.13L436.992 118.591L420.631 137.263L424.906 143.788C425.732 142.773 426.278 142.487 427.441 142.057L457.32 132.566Z" fill="#DA880C"/>
<path d="M482.693 187.791C481.022 189.119 479.937 189.798 477.689 190.829L447.021 205.712L448.409 213.389C449.57 212.796 450.181 212.726 451.422 212.803L482.632 215.709C484.451 215.863 485.487 215.917 487.905 216.607L487.606 214.951C485.457 215.198 484.289 214.967 482.412 214.824L449.836 211.823L478.926 197.667C480.986 196.711 481.881 196.207 484.124 195.701L482.693 187.791Z" fill="#DA880C"/>
<path d="M488.96 240.414C485.12 240.772 483.062 240.882 479.102 240.903L460.53 241.004C456.551 241.026 454.491 240.938 450.668 240.622L450.708 248.047C454.528 247.69 456.586 247.58 460.566 247.558L479.138 247.457C483.097 247.435 485.157 247.523 489 247.839L488.96 240.414Z" fill="#DA880C"/>
<path d="M487.721 272.051C483.865 271.84 481.809 271.655 477.898 271.034L459.556 268.123C455.626 267.5 453.614 267.04 449.902 266.05L446.135 289.79L449.057 291.837C447.984 285.713 448.192 282.639 448.955 277.828L449.7 273.135L468.316 276.089L467.872 278.885C467.475 281.388 467.068 283.95 465.904 288.256L467.742 288.547C467.968 284.093 468.374 281.531 468.772 279.028L469.215 276.232L485.72 278.85L485.059 283.016C484.677 285.421 483.668 289.631 481.011 293.239L483.889 296.201L487.721 272.051Z" fill="#DA880C"/>
<path d="M466.212 349.185L477.996 318.906L474.01 320.032C474.471 324.524 473.535 327.857 472.652 330.127L472.443 330.662L446.796 320.68C443.087 319.237 441.197 318.416 437.758 316.717L435.072 323.617C438.756 324.69 440.71 325.344 444.419 326.788L470.067 336.769L469.858 337.304C468.968 339.592 467.405 342.681 464.028 345.679L466.212 349.185Z" fill="#DA880C"/>
<path d="M422.478 349.68L421.527 351.068C424.87 352.95 426.625 354.032 429.908 356.281L451.731 371.23L451.642 371.29L409.789 368.203L405.414 374.59C408.779 376.439 410.534 377.521 413.817 379.77L429.139 390.266C432.406 392.504 434.049 393.749 437.005 396.23L437.979 394.809C434.62 392.916 432.842 391.867 429.576 389.629L407.736 374.669L407.83 374.637L449.716 377.674L454.069 371.32C450.71 369.427 448.955 368.345 445.688 366.107L430.367 355.611C427.083 353.362 425.44 352.117 422.478 349.68Z" fill="#DA880C"/>
<path d="M377.646 409.536L406.416 427.791L412.207 422.565C411.093 421.891 410.697 421.394 410.122 420.313L396.139 392.26C395.342 390.579 394.826 389.711 394.122 387.306L392.917 388.394C394.216 390.128 394.666 391.189 395.49 392.899L399.519 400.998L390.111 409.488L382.791 404.893C380.849 403.658 379.992 403.152 378.351 401.539L372.383 406.925C374.379 407.63 375.541 408.209 377.646 409.536ZM399.952 401.834L410.125 422.178L390.898 410.005L399.952 401.834Z" fill="#DA880C"/>
<path d="M357.929 417.875L356.318 418.726C358.438 421.928 359.488 423.702 361.349 427.22L373.495 450.182L341.908 425.274L340.858 425.83L344.604 465.644L332.384 442.542C330.523 439.024 329.63 437.167 328.141 433.632L321.595 437.094C323.679 440.315 324.765 442.07 326.626 445.588L335.31 462.005C337.161 465.505 338.002 467.39 339.5 470.943L345.678 467.674L342.797 434.704L369.148 455.259L375.834 451.723C373.74 448.485 372.69 446.711 370.838 443.211L362.154 426.794C360.293 423.276 359.418 421.41 357.929 417.875Z" fill="#DA880C"/>
<path d="M279.957 459.465C275.263 450.855 269.326 448.305 262.098 449.054C256.052 449.68 251.236 453.344 251.918 459.922C252.559 466.106 257.3 468.64 266.489 473.76C273.329 477.53 275.919 478.894 276.258 482.163C276.553 485.018 274.418 487.27 270.519 487.674C264.374 488.311 261.39 483.524 259.729 478.64L255.126 481.088C259.607 486.874 264.389 489.225 270.278 488.615C276.048 488.017 280.233 484.796 279.684 479.499C279.168 474.516 275.927 472.443 268.098 467.96C260.12 463.392 255.748 461.158 255.344 457.258C254.899 452.965 257.564 450.439 261.759 450.005C268.041 449.354 273.309 454.66 275.419 462.543L279.957 459.465Z" fill="#DA880C"/>
<path d="M199.329 485.415L231.609 489.113L229.507 485.544C225.279 487.132 221.818 487.075 219.399 486.797L218.828 486.732L221.961 459.39C222.414 455.436 222.727 453.399 223.497 449.641L216.14 448.798C216.039 452.633 215.903 454.69 215.45 458.644L212.317 485.986L211.747 485.921C209.308 485.641 205.923 484.915 202.164 482.411L199.329 485.415Z" fill="#DA880C"/>
<path d="M175.031 479.405C176.032 475.681 176.645 473.713 178.003 469.993L182.172 458.573C186.863 445.721 182.108 440.213 173.255 436.981C165.015 433.974 159.5 436.956 155.203 448.729L151.034 460.149C149.677 463.869 148.878 465.769 147.244 469.262L148.918 469.873C149.919 466.149 150.532 464.181 151.89 460.461L156.059 449.042C160.078 438.031 164.936 435.462 171.724 437.94C178.829 440.534 179.872 445.762 176.015 456.326L171.847 467.746C170.489 471.466 169.69 473.366 168.057 476.859L175.031 479.405Z" fill="#DA880C"/>
<path d="M143.814 424.941L134.043 418.539C123.509 411.639 113.395 413.132 106.624 423.466C99.5719 434.232 102.724 443.8 113.059 450.57L122.83 456.972C124.654 453.574 125.699 451.798 127.869 448.485L138.047 432.95C140.227 429.621 141.439 427.953 143.814 424.941ZM133.709 419.41L137.469 421.873L117.483 452.38L113.724 449.917C107.115 445.588 105.723 437.741 112.537 427.34C119.09 417.336 127.101 415.081 133.709 419.41Z" fill="#DA880C"/>
<path d="M78.166 423.526C80.583 420.522 81.9375 418.968 84.6797 416.111L97.5404 402.712C100.296 399.841 101.794 398.424 104.683 395.9L99.326 390.759C96.9227 393.749 95.5682 395.303 92.8123 398.174L79.9516 411.573C77.2095 414.429 75.7121 415.846 72.8094 418.384L78.166 423.526Z" fill="#DA880C"/>
<path d="M56.1956 400.652C59.0354 398.035 60.6019 396.692 63.7738 394.321L78.6503 383.203C81.8381 380.821 83.5705 379.699 86.8685 377.729L72.4794 358.475L68.9737 359.142C74.1117 362.644 76.1709 364.936 79.0866 368.838L81.9313 372.644L66.8327 383.928L65.1378 381.66C63.6207 379.63 62.068 377.552 59.7936 373.715L58.3028 374.829C61.3384 378.097 62.8911 380.175 64.4082 382.205L66.1032 384.473L52.7175 394.477L50.1929 391.099C48.735 389.148 46.4207 385.489 45.6878 381.068L41.5576 381.065L56.1956 400.652Z" fill="#DA880C"/>
<path d="M53.5006 349.049C60.1178 341.811 60.5995 335.367 57.5421 328.775C54.9845 323.261 49.9543 319.898 43.9551 322.68C38.3152 325.296 37.4595 330.604 35.6051 340.958C34.2629 348.652 33.8147 351.544 30.8331 352.927C28.2287 354.135 25.4052 352.847 23.7557 349.291C21.1565 343.687 24.7134 339.309 28.7924 336.151L24.9815 332.594C20.9661 338.712 20.297 343.998 22.7879 349.369C25.2288 354.632 29.6345 357.543 34.4662 355.302C39.0105 353.194 39.9175 349.456 41.6129 340.594C43.3398 331.565 44.0318 326.704 47.5882 325.055C51.5038 323.239 54.7581 324.938 56.5325 328.763C59.1901 334.493 55.8838 341.199 49.1149 345.757L53.5006 349.049Z" fill="#DA880C"/>
<path d="M2.92996 280.506C6.69019 279.652 8.717 279.276 12.6405 278.74L31.0416 276.227C34.9847 275.688 37.0383 275.508 40.87 275.324L39.8653 267.968C36.1247 268.818 34.0978 269.195 30.1547 269.733L11.7536 272.247C7.83017 272.782 5.77657 272.963 1.92525 273.149L2.92996 280.506Z" fill="#DA880C"/>
<path d="M38.2645 250.004L38.3285 248.322C34.4972 248.513 32.4358 248.533 28.4589 248.382L2.02599 247.375L2.06933 247.278L39.1191 227.567L39.4137 219.831C35.5809 220.062 33.5195 220.082 29.5427 219.931L10.9842 219.224C7.02717 219.073 4.97328 218.896 1.14928 218.374L1.08372 220.095C4.93484 219.905 6.99778 219.845 10.9548 219.996L37.4075 221.003L37.3452 221.08L0.293161 240.85L0 248.546C3.85113 248.356 5.91255 248.336 9.86958 248.486L28.428 249.193C32.4049 249.345 34.4587 249.522 38.2645 250.004Z" fill="#DA880C"/>
<path d="M5.60825 193.834C9.4292 194.351 11.4596 194.708 15.3223 195.58L33.4385 199.669C37.3205 200.545 39.3074 201.095 42.9608 202.265L44.5955 195.022C40.7939 194.509 38.7635 194.152 34.8815 193.276L16.7653 189.187C12.9026 188.315 10.9157 187.765 7.24301 186.591L5.60825 193.834Z" fill="#DA880C"/>
<path d="M25.4774 135.184L13.0574 165.208L17.0664 164.167C16.7001 159.665 17.706 156.353 18.6369 154.103L18.8564 153.572L44.2876 164.093C47.965 165.614 49.8375 166.474 53.2399 168.246L56.0706 161.403C52.4108 160.254 50.4702 159.558 46.7928 158.037L21.3616 147.516L21.5811 146.986C22.5196 144.717 24.1475 141.662 27.5867 138.735L25.4774 135.184Z" fill="#DA880C"/>
<path d="M37.3766 115.234C40.7928 117.022 42.5802 118.049 45.9149 120.185L61.5545 130.201C64.9058 132.347 66.5865 133.541 69.6229 135.885L73.6272 129.633C70.2277 127.855 68.4403 126.828 65.0889 124.682L49.4493 114.666C46.1146 112.53 44.434 111.337 41.3809 108.982L37.3766 115.234Z" fill="#DA880C"/>
<path d="M97.7632 91.958L67.4349 76.4287L62.1493 82.1662C63.3216 82.7347 63.7608 83.1931 64.4333 84.2164L80.939 110.863C81.8873 112.464 82.4813 113.28 83.4035 115.611L84.5036 114.416C83.0504 112.809 82.5044 111.794 81.5269 110.167L76.7697 102.473L85.3554 93.1532L93.0679 97.0547C95.1147 98.1058 96.0149 98.5313 97.798 99.9855L103.245 94.0733C101.192 93.5549 99.9813 93.0861 97.7632 91.958ZM76.2608 101.681L64.2591 82.3599L84.5246 92.7109L76.2608 101.681Z" fill="#DA880C"/>
<path d="M120.193 33.7435L93.3876 52.1054L97.3144 53.4234C99.4666 49.4531 102.119 47.2285 104.128 45.8522L104.601 45.5277L120.155 68.2327C122.404 71.5159 123.502 73.2595 125.384 76.6023L131.493 72.4174C129.056 69.4551 127.811 67.8122 125.561 64.529L110.008 41.824L110.482 41.4995C112.507 40.112 115.54 38.4427 120.019 37.8701L120.193 33.7435Z" fill="#DA880C"/>
<path d="M140.936 23.3603C142.822 26.7232 143.759 28.5595 145.388 32.169L153.025 49.098C154.661 52.7257 155.418 54.6434 156.682 58.265L163.45 55.2118C161.572 51.867 160.635 50.0307 158.999 46.403L151.361 29.4741C149.733 25.8645 148.976 23.9468 147.704 20.3071L140.936 23.3603Z" fill="#DA880C"/>
<path d="M169.635 11.6651C171.085 13.2317 171.844 14.2621 173.04 16.4265L190.186 45.8895L197.736 43.9281C197.058 42.8154 196.942 42.2114 196.926 40.9677L197.479 9.62773C197.496 7.80271 197.472 6.76563 197.977 4.30222L196.348 4.72538C196.757 6.84904 196.614 8.03171 196.612 9.91422L196.067 42.6228L179.766 14.6791C178.658 12.6964 178.088 11.842 177.415 9.64392L169.635 11.6651Z" fill="#DA880C"/>
<path d="M223.235 0.974442C223.777 4.79769 223.994 6.85007 224.145 10.8071L224.852 29.3656C225.003 33.3424 224.943 35.4053 224.693 39.2389L248.712 38.324L250.153 35.0593C244.354 37.3012 241.298 37.695 236.43 37.8804L231.682 38.0613L230.965 19.2258L233.794 19.118C236.326 19.0216 238.918 18.9228 243.368 19.2289L243.297 17.3691C238.884 18.0127 236.292 18.1114 233.759 18.2079L230.93 18.3157L230.294 1.61702L234.508 1.4565C236.942 1.3638 241.268 1.53586 245.323 3.44203L247.67 0.0437124L223.235 0.974442Z" fill="#DA880C"/>
<path d="M302.714 42.2853L312.289 36.9474L306.942 27.329L297.313 32.7133L302.714 42.2853Z" fill="#DA880C"/>
<path d="M181.183 380.631L180.12 380.04C178.991 382.571 178.331 383.906 176.934 386.42L167.647 403.125L167.598 403.065L167.004 372.748L162.115 370.03C161.011 372.575 160.35 373.911 158.953 376.424L152.433 388.153C151.043 390.653 150.257 391.919 148.671 394.213L149.759 394.817C150.895 392.274 151.53 390.924 152.92 388.424L162.214 371.706L162.244 371.771L162.876 402.109L167.74 404.813C168.876 402.269 169.536 400.934 170.926 398.434L177.447 386.705C178.844 384.191 179.629 382.926 181.183 380.631Z" fill="#DA880C"/>
<path d="M133.445 382.966C135.069 380.697 135.979 379.516 137.874 377.372L146.762 367.318C148.667 365.164 149.727 364.115 151.77 362.236L138.758 350.733L136.376 351.721C140.526 353.442 142.32 354.76 144.957 357.091L147.529 359.365L138.509 369.569L136.976 368.214C135.604 367.002 134.2 365.76 132.026 363.38L131.136 364.388C133.764 366.253 135.168 367.495 136.54 368.707L138.073 370.062L130.076 379.109L127.793 377.091C126.474 375.925 124.299 373.677 123.13 370.658L120.207 371.263L133.445 382.966Z" fill="#DA880C"/>
<path d="M90.7255 326.405C89.4566 326.792 88.7679 327.072 86.9725 327.308L87.6153 328.289C88.9903 327.542 89.8172 327.342 91.122 326.932L113.646 319.753L98.2718 337.35C97.515 338.205 97.0821 338.745 96.407 339.307C96.0175 339.391 95.5607 339.451 94.9846 339.538L98.5438 344.971C99.3044 343.652 99.8342 342.894 101.016 341.539L104.608 337.441L121.659 331.983L106.3 349.604C105.199 350.822 104.746 351.409 103.397 352.379L106.579 357.237C107.317 355.882 107.846 355.124 109.051 353.805L125.255 335.254L122.166 330.539C121.561 331.26 121.175 331.479 120.327 331.778L105.413 336.503L117.235 323.012L114.146 318.297C113.549 319.03 113.155 319.237 112.315 319.548L90.7255 326.405Z" fill="#DA880C"/>
<path d="M72.392 286.502C73.5995 285.542 74.383 285.052 76.0075 284.307L98.167 273.553L97.1637 268.006C96.3252 268.434 95.8836 268.485 94.9867 268.429L72.4358 266.329C71.1217 266.218 70.3732 266.179 68.6257 265.681L68.8422 266.878C70.3945 266.699 71.2389 266.866 72.5952 266.969L96.1326 269.138L75.1137 279.366C73.6249 280.057 72.9784 280.421 71.3581 280.787L72.392 286.502Z" fill="#DA880C"/>
<path d="M67.8638 248.479C70.6378 248.221 72.1253 248.141 74.9865 248.125L88.4056 248.052C91.2811 248.037 92.7693 248.1 95.5317 248.328L95.5025 242.964C92.7428 243.222 91.2553 243.301 88.3798 243.317L74.9607 243.39C72.0995 243.406 70.6113 243.342 67.8346 243.114L67.8638 248.479Z" fill="#DA880C"/>
<path d="M68.759 225.619C71.545 225.772 73.0302 225.906 75.8561 226.354L89.1096 228.457C91.9496 228.908 93.4034 229.24 96.0855 229.955L98.8073 212.802L96.6954 211.323C97.4708 215.748 97.3211 217.969 96.7695 221.445L96.2315 224.836L82.7802 222.702L83.1008 220.681C83.3877 218.873 83.6814 217.022 84.5228 213.911L83.1946 213.7C83.0315 216.919 82.7378 218.77 82.4508 220.578L82.1302 222.599L70.2049 220.706L70.6825 217.697C70.9582 215.959 71.6872 212.917 73.6073 210.31L71.5279 208.169L68.759 225.619Z" fill="#DA880C"/>
<path d="M84.3004 169.886L75.7858 191.764L78.6661 190.95C78.3328 187.704 79.009 185.296 79.6472 183.657L79.7977 183.27L98.3294 190.482C101.009 191.525 102.375 192.118 104.86 193.346L106.8 188.36C104.139 187.585 102.727 187.112 100.047 186.069L81.5151 178.857L81.6656 178.47C82.309 176.817 83.4384 174.586 85.8783 172.419L84.3004 169.886Z" fill="#DA880C"/>
<path d="M115.9 169.528L116.588 168.525C114.172 167.165 112.904 166.383 110.532 164.758L94.7638 153.957L94.8279 153.914L125.069 156.144L128.23 151.529C125.799 150.193 124.531 149.411 122.158 147.786L111.088 140.202C108.727 138.585 107.54 137.686 105.404 135.893L104.7 136.92C107.128 138.287 108.412 139.046 110.772 140.663L126.552 151.472L126.485 151.495L96.2193 149.301L93.0742 153.892C95.5014 155.26 96.7693 156.041 99.1298 157.658L110.201 165.242C112.573 166.867 113.76 167.767 115.9 169.528Z" fill="#DA880C"/>
<path d="M148.294 126.279L127.506 113.088L123.322 116.865C124.127 117.352 124.413 117.711 124.829 118.492L134.932 138.762C135.508 139.976 135.881 140.603 136.389 142.341L137.26 141.555C136.322 140.302 135.996 139.535 135.401 138.3L132.49 132.448L139.287 126.313L144.577 129.633C145.98 130.526 146.599 130.892 147.785 132.057L152.097 128.165C150.655 127.656 149.815 127.238 148.294 126.279ZM132.177 131.844L124.827 117.144L138.719 125.94L132.177 131.844Z" fill="#DA880C"/>
<path d="M162.541 120.253L163.705 119.638C162.173 117.324 161.414 116.043 160.07 113.501L151.293 96.9094L174.117 114.907L174.876 114.505L172.169 85.7372L180.999 102.43C182.344 104.972 182.989 106.314 184.065 108.868L188.794 106.366C187.288 104.039 186.504 102.771 185.159 100.229L178.885 88.3671C177.547 85.8379 176.94 84.4759 175.857 81.9088L171.393 84.2702L173.475 108.093L154.435 93.2408L149.604 95.7961C151.117 98.1357 151.876 99.4175 153.213 101.947L159.488 113.809C160.833 116.35 161.465 117.699 162.541 120.253Z" fill="#DA880C"/>
<path d="M218.88 90.2017C222.272 96.4233 226.562 98.2657 231.784 97.7246C236.153 97.2719 239.633 94.6246 239.14 89.8717C238.677 85.4035 235.251 83.5722 228.612 79.8734C223.669 77.1493 221.798 76.1638 221.553 73.8016C221.34 71.7382 222.883 70.1113 225.7 69.8194C230.14 69.3594 232.296 72.818 233.496 76.3469L236.822 74.5784C233.584 70.3976 230.129 68.6989 225.874 69.1397C221.705 69.5717 218.681 71.8986 219.078 75.7265C219.451 79.3267 221.792 80.8244 227.449 84.0641C233.213 87.3647 236.372 88.9791 236.664 91.7966C236.986 94.8988 235.06 96.7235 232.029 97.0376C227.49 97.5079 223.684 93.6736 222.159 87.9778L218.88 90.2017Z" fill="#DA880C"/>
<path d="M277.139 71.4519L253.815 68.7795L255.333 71.3583C258.388 70.2107 260.889 70.2525 262.637 70.4528L263.049 70.5L260.786 90.2565C260.458 93.1134 260.232 94.585 259.676 97.3005L264.992 97.9096C265.065 95.1387 265.163 93.6524 265.49 90.7955L267.754 71.0391L268.166 71.0863C269.929 71.2882 272.374 71.8132 275.09 73.622L277.139 71.4519Z" fill="#DA880C"/>
<path d="M294.695 75.7942C293.972 78.4848 293.529 79.9069 292.548 82.5947L289.536 90.8462C286.146 100.133 289.582 104.113 295.979 106.448C301.932 108.621 305.917 106.466 309.022 97.9593L312.034 89.7077C313.015 87.02 313.593 85.6468 314.773 83.1231L313.563 82.6816C312.84 85.3721 312.397 86.7943 311.416 89.4821L308.404 97.7336C305.5 105.689 301.99 107.545 297.085 105.755C291.951 103.881 291.198 100.103 293.984 92.47L296.996 84.2185C297.977 81.5307 298.555 80.1575 299.735 77.6338L294.695 75.7942Z" fill="#DA880C"/>
<path d="M317.251 115.148L324.312 119.773C331.923 124.759 339.231 123.681 344.123 116.213C349.219 108.435 346.941 101.521 339.474 96.6289L332.413 92.0035C331.096 94.4584 330.34 95.7422 328.772 98.1356L321.419 109.361C319.843 111.766 318.968 112.971 317.251 115.148ZM324.553 119.144L321.836 117.365L336.277 95.3214L338.993 97.101C343.768 100.229 344.774 105.899 339.851 113.414C335.116 120.642 329.328 122.272 324.553 119.144Z" fill="#DA880C"/>
<path d="M364.686 116.17C362.939 118.341 361.961 119.464 359.979 121.528L350.687 131.209C348.696 133.284 347.614 134.308 345.526 136.131L349.397 139.846C351.133 137.686 352.112 136.563 354.103 134.488L363.396 124.807C365.377 122.743 366.459 121.719 368.556 119.885L364.686 116.17Z" fill="#DA880C"/>
<path d="M380.561 132.698C378.509 134.588 377.377 135.559 375.085 137.272L364.336 145.305C362.033 147.027 360.781 147.837 358.398 149.261L368.795 163.173L371.328 162.691C367.615 160.161 366.127 158.505 364.021 155.686L361.965 152.935L372.875 144.782L374.1 146.421C375.196 147.888 376.318 149.389 377.961 152.161L379.038 151.356C376.845 148.995 375.723 147.494 374.627 146.027L373.402 144.388L383.074 137.16L384.898 139.601C385.951 141.01 387.624 143.654 388.153 146.848L391.138 146.85L380.561 132.698Z" fill="#DA880C"/>
<path d="M382.508 169.984C377.727 175.214 377.379 179.87 379.588 184.633C381.436 188.617 385.07 191.047 389.405 189.037C393.48 187.147 394.099 183.312 395.439 175.83C396.408 170.271 396.732 168.181 398.887 167.182C400.768 166.309 402.809 167.239 404 169.809C405.878 173.858 403.308 177.022 400.361 179.303L403.115 181.874C406.016 177.453 406.5 173.633 404.7 169.753C402.936 165.95 399.753 163.847 396.262 165.466C392.978 166.989 392.323 169.69 391.098 176.093C389.85 182.617 389.35 186.129 386.78 187.321C383.951 188.633 381.599 187.406 380.317 184.641C378.397 180.501 380.786 175.656 385.677 172.362L382.508 169.984Z" fill="#DA880C"/>
<path d="M419.048 219.51C416.331 220.127 414.867 220.399 412.032 220.786L398.736 222.602C395.887 222.991 394.403 223.122 391.634 223.254L392.36 228.57C395.063 227.955 396.528 227.683 399.377 227.294L412.673 225.478C415.508 225.091 416.991 224.961 419.774 224.826L419.048 219.51Z" fill="#DA880C"/>
<path d="M393.517 241.55L393.471 242.765C396.239 242.627 397.729 242.612 400.602 242.722L419.701 243.449L419.67 243.52L392.899 257.761L392.687 263.351C395.456 263.185 396.946 263.17 399.819 263.279L413.229 263.79C416.088 263.899 417.572 264.027 420.335 264.404L420.382 263.161C417.6 263.298 416.109 263.341 413.25 263.232L394.136 262.504L394.181 262.449L420.953 248.164L421.165 242.603C418.383 242.74 416.893 242.755 414.034 242.646L400.624 242.136C397.751 242.026 396.267 241.898 393.517 241.55Z" fill="#DA880C"/>
<path d="M417.113 282.136C414.352 281.762 412.885 281.504 410.094 280.874L397.004 277.92C394.199 277.287 392.763 276.889 390.124 276.044L388.942 281.277C391.689 281.648 393.156 281.906 395.961 282.539L409.051 285.494C411.842 286.124 413.278 286.521 415.932 287.369L417.113 282.136Z" fill="#DA880C"/>
<path d="M402.756 324.513L411.731 302.82L408.834 303.572C409.099 306.825 408.372 309.218 407.699 310.844L407.54 311.227L389.165 303.626C386.508 302.526 385.155 301.905 382.696 300.625L380.651 305.569C383.295 306.4 384.698 306.902 387.355 308.001L405.73 315.603L405.572 315.986C404.894 317.626 403.717 319.833 401.232 321.948L402.756 324.513Z" fill="#DA880C"/>
<path d="M394.159 338.929C391.69 337.637 390.399 336.895 387.989 335.352L376.689 328.114C374.267 326.564 373.053 325.701 370.859 324.007L367.965 328.525C370.422 329.809 371.713 330.551 374.135 332.102L385.435 339.339C387.845 340.882 389.059 341.745 391.265 343.447L394.159 338.929Z" fill="#DA880C"/>
<path d="M350.526 355.747L372.44 366.968L376.259 362.822C375.412 362.411 375.094 362.08 374.609 361.341L362.682 342.087C361.997 340.93 361.568 340.34 360.901 338.657L360.107 339.519C361.157 340.681 361.551 341.414 362.257 342.59L365.695 348.149L359.491 354.883L353.918 352.064C352.439 351.305 351.789 350.997 350.501 349.947L346.565 354.219C348.049 354.593 348.923 354.932 350.526 355.747ZM366.062 348.722L374.734 362.682L360.091 355.203L366.062 348.722Z" fill="#DA880C"/>
<path d="M334.319 397.81L353.687 384.543L350.85 383.591C349.295 386.459 347.379 388.067 345.927 389.061L345.585 389.296L334.347 372.89C332.721 370.518 331.928 369.258 330.568 366.842L326.154 369.866C327.915 372.007 328.815 373.194 330.44 375.566L341.678 391.972L341.336 392.206C339.872 393.209 337.681 394.415 334.444 394.829L334.319 397.81Z" fill="#DA880C"/>
<path d="M319.331 405.313C317.968 402.883 317.291 401.556 316.114 398.948L310.596 386.716C309.414 384.095 308.867 382.709 307.953 380.092L303.063 382.298C304.42 384.715 305.097 386.042 306.28 388.663L311.798 400.895C312.975 403.503 313.521 404.889 314.441 407.519L319.331 405.313Z" fill="#DA880C"/>
<path d="M298.594 413.763C297.547 412.631 296.998 411.887 296.134 410.323L283.745 389.034L278.29 390.451C278.779 391.255 278.863 391.692 278.875 392.59L278.475 415.235C278.463 416.554 278.481 417.303 278.115 419.083L279.292 418.778C278.997 417.243 279.1 416.389 279.102 415.028L279.495 391.395L291.274 411.585C292.075 413.018 292.486 413.635 292.973 415.224L298.594 413.763Z" fill="#DA880C"/>
<path d="M259.865 421.488C259.473 418.725 259.317 417.242 259.208 414.383L258.697 400.974C258.587 398.1 258.631 396.61 258.812 393.84L241.456 394.501L240.415 396.86C244.606 395.24 246.814 394.955 250.331 394.821L253.762 394.691L254.28 408.3L252.236 408.378C250.406 408.448 248.533 408.519 245.318 408.298L245.369 409.642C248.558 409.177 250.431 409.105 252.261 409.036L254.305 408.958L254.765 421.024L251.72 421.14C249.961 421.207 246.836 421.082 243.905 419.705L242.209 422.16L259.865 421.488Z" fill="#DA880C"/>
<path d="M202.437 391.638L195.519 395.495L199.382 402.445L206.339 398.555L202.437 391.638Z" fill="#DA880C"/>
</svg>
