<svg width="354" height="355" viewBox="0 0 354 355" fill="none" xmlns="http://www.w3.org/2000/svg">
<circle cx="178" cy="178" r="134.5" stroke="black"/>
<path d="M113.349 312.631L112.286 312.04C111.157 314.571 110.496 315.906 109.099 318.42L99.8122 335.125L99.7635 335.065L99.169 304.748L94.28 302.03C93.176 304.575 92.5156 305.911 91.1184 308.424L84.5981 320.153C83.2078 322.653 82.4224 323.919 80.8362 326.213L81.9241 326.817C83.0601 324.274 83.6955 322.924 85.0857 320.424L94.3796 303.706L94.4087 303.771L95.0407 334.109L99.9048 336.813C101.041 334.269 101.701 332.934 103.091 330.434L109.612 318.705C111.009 316.191 111.794 314.926 113.349 312.631Z" fill="#333333"/>
<path d="M65.6099 314.966C67.2337 312.697 68.1442 311.516 70.0393 309.372L78.9273 299.318C80.8318 297.164 81.8923 296.115 83.9355 294.236L70.9233 282.733L68.5415 283.721C72.6914 285.442 74.4854 286.76 77.1221 289.091L79.6946 291.365L70.6739 301.569L69.1412 300.214C67.7692 299.002 66.3651 297.76 64.1916 295.38L63.3009 296.388C65.9292 298.253 67.3333 299.495 68.7053 300.707L70.238 302.062L62.2407 311.109L59.9577 309.091C58.6393 307.925 56.4638 305.677 55.2948 302.658L52.3726 303.263L65.6099 314.966Z" fill="#333333"/>
<path d="M22.8907 258.405C21.6218 258.792 20.9331 259.072 19.1376 259.308L19.7805 260.289C21.1555 259.542 21.9824 259.342 23.2872 258.932L45.8116 251.753L30.437 269.35C29.6802 270.205 29.2473 270.745 28.5722 271.307C28.1826 271.391 27.7258 271.451 27.1498 271.538L30.709 276.971C31.4695 275.652 31.9994 274.894 33.1809 273.539L36.7731 269.441L53.8238 263.983L38.4648 281.604C37.3638 282.822 36.9107 283.409 35.5617 284.379L38.7446 289.237C39.4817 287.882 40.0115 287.124 41.2165 285.805L57.4202 267.254L54.3314 262.539C53.7264 263.26 53.3398 263.479 52.4922 263.778L37.5782 268.503L49.4002 255.012L46.3114 250.297C45.7143 251.03 45.3198 251.237 44.48 251.548L22.8907 258.405Z" fill="#333333"/>
<path d="M4.55713 218.502C5.76465 217.542 6.54821 217.052 8.17268 216.307L30.3322 205.553L29.3289 200.006C28.4903 200.434 28.0488 200.485 27.1519 200.429L4.60096 198.33C3.28692 198.218 2.53839 198.179 0.790921 197.681L1.00737 198.878C2.55968 198.699 3.40406 198.866 4.76033 198.969L28.2978 201.138L7.27888 211.366C5.79009 212.057 5.14356 212.421 3.52327 212.787L4.55713 218.502Z" fill="#333333"/>
<path d="M0.0292969 180.479C2.80335 180.221 4.29079 180.141 7.152 180.125L20.5711 180.052C23.4466 180.037 24.9348 180.1 27.6972 180.328L27.668 174.964C24.9083 175.222 23.4209 175.301 20.5453 175.317L7.12625 175.39C4.26504 175.406 2.77682 175.342 0.00012224 175.114L0.0292969 180.479Z" fill="#333333"/>
<path d="M0.924316 157.619C3.71028 157.772 5.19544 157.906 8.02135 158.354L21.2748 160.457C24.1149 160.908 25.5686 161.24 28.2508 161.955L30.9726 144.802L28.8607 143.323C29.636 147.748 29.4863 149.969 28.9348 153.445L28.3967 156.836L14.9454 154.702L15.266 152.681C15.553 150.873 15.8467 149.022 16.688 145.911L15.3599 145.7C15.1968 148.919 14.9031 150.77 14.6161 152.578L14.2955 154.599L2.37018 152.706L2.84772 149.697C3.12349 147.959 3.85244 144.917 5.77255 142.31L3.69317 140.169L0.924316 157.619Z" fill="#333333"/>
<path d="M16.4657 101.886L7.95117 123.764L10.8314 122.95C10.4982 119.704 11.1743 117.296 11.8125 115.657L11.963 115.27L30.4948 122.482C33.1745 123.525 34.5403 124.118 37.0252 125.346L38.9658 120.36C36.3045 119.585 34.892 119.112 32.2122 118.069L13.6805 110.857L13.8309 110.47C14.4743 108.817 15.6038 106.586 18.0436 104.419L16.4657 101.886Z" fill="#333333"/>
<path d="M48.0655 101.528L48.7528 100.525C46.3374 99.1652 45.0695 98.3834 42.6972 96.7583L26.9289 85.9567L26.9929 85.9139L57.2339 88.144L60.3952 83.5292C57.9637 82.193 56.6958 81.4112 54.3234 79.7861L43.2526 72.2024C40.8921 70.5854 39.705 69.6855 37.5689 67.8928L36.8655 68.9196C39.2927 70.2875 40.5767 71.0457 42.9373 72.6627L58.7174 83.4724L58.6496 83.4953L28.3843 81.3006L25.2393 85.8918C27.6664 87.2596 28.9343 88.0415 31.2948 89.6585L42.3657 97.2422C44.738 98.8673 45.9251 99.7672 48.0655 101.528Z" fill="#333333"/>
<path d="M80.4592 58.2786L59.6713 45.0882L55.4867 48.8646C56.2924 49.3516 56.5779 49.7106 56.9936 50.4916L67.0968 70.7618C67.6727 71.9764 68.0458 72.6033 68.5543 74.3412L69.4252 73.5553C68.4867 72.3018 68.1613 71.5355 67.5662 70.2996L64.6552 64.4476L71.4524 58.3132L76.742 61.6333C78.1447 62.5257 78.7641 62.8917 79.9503 64.0566L84.2623 60.1652C82.8197 59.6556 81.9801 59.2378 80.4592 58.2786ZM64.3418 63.844L56.9918 49.1444L70.8841 57.9397L64.3418 63.844Z" fill="#333333"/>
<path d="M94.7064 52.2535L95.8699 51.638C94.3385 49.3245 93.5796 48.0427 92.235 45.5009L83.4585 28.9094L106.282 46.9069L107.041 46.5055L104.334 17.7372L113.164 34.4298C114.509 36.9717 115.154 38.3136 116.23 40.868L120.959 38.3662C119.453 36.0392 118.669 34.7709 117.325 32.229L111.05 20.3671C109.712 17.8379 109.105 16.4759 108.022 13.9088L103.558 16.2702L105.64 40.0932L86.5998 25.2408L81.769 27.7961C83.2818 30.1357 84.0407 31.4175 85.3786 33.9467L91.6533 45.8086C92.9979 48.3504 93.6304 49.6991 94.7064 52.2535Z" fill="#333333"/>
<path d="M151.045 22.2017C154.437 28.4232 158.727 30.2656 163.949 29.7246C168.318 29.2719 171.798 26.6245 171.305 21.8717C170.842 17.4034 167.416 15.5722 160.777 11.8733C155.834 9.14926 153.963 8.16374 153.718 5.80154C153.505 3.73818 155.048 2.11126 157.865 1.81934C162.305 1.35934 164.461 4.81795 165.661 8.34689L168.987 6.57837C165.749 2.39761 162.294 0.69886 158.039 1.13969C153.87 1.57167 150.846 3.89856 151.243 7.72646C151.616 11.3267 153.957 12.8244 159.614 16.0641C165.379 19.3646 168.537 20.979 168.829 23.7966C169.151 26.8988 167.226 28.7235 164.195 29.0375C159.655 29.5079 155.849 25.6736 154.324 19.9778L151.045 22.2017Z" fill="#333333"/>
<path d="M209.304 3.45195L185.98 0.779541L187.499 3.35835C190.554 2.21076 193.054 2.2525 194.803 2.45281L195.215 2.50004L192.951 22.2565C192.624 25.1134 192.398 26.585 191.842 29.3005L197.157 29.9096C197.23 27.1387 197.328 25.6524 197.656 22.7955L199.919 3.03908L200.332 3.0863C202.094 3.28824 204.539 3.81323 207.255 5.622L209.304 3.45195Z" fill="#333333"/>
<path d="M226.86 7.79419C226.137 10.4847 225.694 11.9069 224.713 14.5947L221.701 22.8462C218.311 32.1325 221.747 36.1128 228.144 38.4478C234.098 40.621 238.082 38.4661 241.188 29.9592L244.2 21.7077C245.181 19.0199 245.758 17.6468 246.938 15.1231L245.729 14.6816C245.005 17.3721 244.562 18.7943 243.581 21.4821L240.569 29.7336C237.665 37.6894 234.155 39.5454 229.25 37.7549C224.116 35.881 223.363 32.1033 226.149 24.4699L229.161 16.2184C230.142 13.5306 230.72 12.1575 231.9 9.63376L226.86 7.79419Z" fill="#333333"/>
<path d="M249.417 47.1477L256.477 51.7731C264.088 56.7591 271.397 55.6806 276.288 48.2132C281.384 40.4346 279.107 33.5209 271.639 28.6289L264.579 24.0035C263.261 26.4584 262.506 27.7422 260.938 30.1356L253.584 41.3606C252.008 43.766 251.133 44.9714 249.417 47.1477ZM256.718 51.1442L254.002 49.3646L268.442 27.3214L271.159 29.101C275.934 32.2291 276.94 37.8991 272.016 45.4144C267.281 52.6425 261.493 54.2723 256.718 51.1442Z" fill="#333333"/>
<path d="M296.851 48.1701C295.105 50.3408 294.126 51.4637 292.145 53.5279L282.852 63.2091C280.861 65.2836 279.779 66.3075 277.691 68.1311L281.562 71.8461C283.298 69.6857 284.277 68.5628 286.268 66.4883L295.561 56.8071C297.542 54.7429 298.624 53.719 300.721 51.8852L296.851 48.1701Z" fill="#333333"/>
<path d="M312.726 64.6978C310.674 66.5884 309.542 67.5593 307.25 69.2722L296.501 77.3054C294.198 79.0268 292.946 79.8373 290.563 81.261L300.96 95.173L303.493 94.6909C299.781 92.1609 298.293 90.5046 296.186 87.6855L294.131 84.9352L305.04 76.7821L306.265 78.4208C307.361 79.8876 308.483 81.3888 310.126 84.1613L311.204 83.3563C309.01 80.9949 307.888 79.4937 306.792 78.0268L305.567 76.3881L315.239 69.1599L317.063 71.6008C318.117 73.0103 319.789 75.6541 320.319 78.8482L323.303 78.8504L312.726 64.6978Z" fill="#333333"/>
<path d="M314.673 101.984C309.892 107.214 309.544 111.87 311.753 116.633C313.601 120.617 317.236 123.047 321.57 121.037C325.645 119.147 326.264 115.312 327.604 107.83C328.573 102.271 328.897 100.181 331.052 99.1818C332.934 98.3089 334.974 99.2394 336.166 101.809C338.044 105.858 335.474 109.022 332.526 111.303L335.28 113.874C338.181 109.453 338.665 105.633 336.865 101.753C335.101 97.9502 331.918 95.8468 328.427 97.4661C325.143 98.989 324.488 101.69 323.263 108.093C322.015 114.617 321.515 118.129 318.945 119.321C316.116 120.633 313.765 119.406 312.482 116.641C310.562 112.501 312.951 107.656 317.842 104.362L314.673 101.984Z" fill="#333333"/>
<path d="M351.213 151.51C348.496 152.127 347.032 152.399 344.197 152.786L330.901 154.602C328.052 154.991 326.568 155.122 323.8 155.254L324.525 160.57C327.228 159.955 328.693 159.683 331.542 159.294L344.838 157.478C347.673 157.091 349.157 156.961 351.939 156.826L351.213 151.51Z" fill="#333333"/>
<path d="M325.682 173.55L325.636 174.765C328.404 174.627 329.894 174.612 332.767 174.722L351.867 175.449L351.835 175.52L325.065 189.761L324.852 195.351C327.621 195.185 329.111 195.17 331.984 195.279L345.394 195.79C348.253 195.899 349.737 196.027 352.5 196.404L352.548 195.161C349.765 195.298 348.274 195.341 345.415 195.232L326.301 194.504L326.347 194.449L353.119 180.164L353.331 174.603C350.548 174.74 349.058 174.755 346.199 174.646L332.79 174.136C329.916 174.026 328.432 173.898 325.682 173.55Z" fill="#333333"/>
<path d="M349.278 214.136C346.517 213.762 345.05 213.504 342.259 212.874L329.169 209.92C326.364 209.287 324.929 208.889 322.289 208.044L321.108 213.277C323.855 213.648 325.322 213.906 328.127 214.539L341.217 217.494C344.008 218.124 345.443 218.521 348.097 219.369L349.278 214.136Z" fill="#333333"/>
<path d="M334.922 256.513L343.896 234.82L340.999 235.572C341.264 238.825 340.537 241.218 339.864 242.844L339.706 243.227L321.33 235.626C318.673 234.526 317.32 233.905 314.862 232.625L312.816 237.569C315.461 238.4 316.863 238.902 319.52 240.001L337.896 247.603L337.737 247.986C337.059 249.626 335.883 251.833 333.398 253.948L334.922 256.513Z" fill="#333333"/>
<path d="M326.324 270.929C323.855 269.637 322.564 268.895 320.154 267.352L308.854 260.114C306.432 258.564 305.218 257.701 303.024 256.007L300.131 260.525C302.587 261.809 303.878 262.551 306.3 264.102L317.601 271.339C320.01 272.882 321.224 273.745 323.43 275.447L326.324 270.929Z" fill="#333333"/>
<path d="M282.691 287.747L304.605 298.968L308.424 294.822C307.577 294.411 307.26 294.08 306.774 293.341L294.847 274.087C294.162 272.93 293.733 272.34 293.067 270.657L292.272 271.519C293.322 272.681 293.716 273.414 294.423 274.59L297.86 280.149L291.656 286.883L286.084 284.064C284.605 283.305 283.954 282.997 282.666 281.947L278.73 286.219C280.214 286.593 281.088 286.932 282.691 287.747ZM298.228 280.722L306.9 294.682L292.257 287.203L298.228 280.722Z" fill="#333333"/>
<path d="M266.484 329.81L285.853 316.543L283.015 315.591C281.46 318.459 279.544 320.067 278.092 321.061L277.75 321.296L266.512 304.89C264.887 302.518 264.093 301.258 262.733 298.842L258.319 301.866C260.08 304.007 260.98 305.194 262.605 307.566L273.843 323.972L273.501 324.206C272.037 325.209 269.846 326.415 266.61 326.829L266.484 329.81Z" fill="#333333"/>
<path d="M251.497 337.313C250.134 334.883 249.457 333.556 248.28 330.948L242.762 318.716C241.579 316.095 241.033 314.709 240.119 312.092L235.229 314.298C236.586 316.715 237.263 318.042 238.445 320.663L243.963 332.895C245.14 335.503 245.687 336.889 246.606 339.519L251.497 337.313Z" fill="#333333"/>
<path d="M230.76 345.763C229.712 344.631 229.164 343.887 228.299 342.323L215.91 321.034L210.455 322.451C210.944 323.255 211.028 323.692 211.04 324.59L210.641 347.235C210.629 348.554 210.646 349.303 210.281 351.083L211.458 350.778C211.162 349.243 211.266 348.389 211.267 347.028L211.661 323.395L223.439 343.585C224.24 345.018 224.652 345.635 225.138 347.224L230.76 345.763Z" fill="#333333"/>
<path d="M192.03 353.488C191.639 350.725 191.482 349.242 191.373 346.383L190.862 332.974C190.753 330.1 190.796 328.61 190.977 325.84L173.622 326.501L172.581 328.86C176.771 327.24 178.979 326.955 182.496 326.821L185.927 326.691L186.446 340.3L184.401 340.378C182.571 340.448 180.699 340.519 177.483 340.298L177.534 341.642C180.724 341.177 182.596 341.105 184.426 341.036L186.471 340.958L186.93 353.024L183.885 353.14C182.127 353.207 179.001 353.082 176.071 351.705L174.375 354.16L192.03 353.488Z" fill="#333333"/>
<path d="M134.603 323.638L127.684 327.495L131.547 334.445L138.505 330.555L134.603 323.638Z" fill="#333333"/>
</svg>
