<svg width="24" height="24" viewBox="0 0 24 24" fill="none" xmlns="http://www.w3.org/2000/svg">
<path d="M12.0001 0C5.37268 0 0 5.39514 0 12.0502C0 18.0191 4.32626 22.9623 9.9987 23.9195V14.5642H7.10393V11.1977H9.9987V8.71529C9.9987 5.83501 11.7506 4.26543 14.3096 4.26543C15.5353 4.26543 16.5886 4.35714 16.8944 4.39753V7.40819L15.1194 7.40905C13.728 7.40905 13.4598 8.07288 13.4598 9.04735V11.1959H16.7798L16.3468 14.5625H13.4598V24C19.397 23.2744 24 18.2052 24 12.0468C24 5.39514 18.6273 0 12.0001 0Z" fill="white"/>
</svg>
