<svg width="24" height="24" viewBox="0 0 24 24" fill="none" xmlns="http://www.w3.org/2000/svg">
<g clip-path="url(#clip0_518_836)">
<path fill-rule="evenodd" clip-rule="evenodd" d="M21.3903 4.11395C22.4182 4.3908 23.2288 5.20123 23.5055 6.22936C24.0197 8.10728 23.9999 12.0217 23.9999 12.0217C23.9999 12.0217 23.9999 15.9161 23.5057 17.7943C23.2288 18.8222 22.4184 19.6328 21.3903 19.9095C19.5122 20.4039 12 20.4039 12 20.4039C12 20.4039 4.50731 20.4039 2.60961 19.8899C1.58148 19.613 0.771054 18.8024 0.4942 17.7745C0 15.9161 0 12.0019 0 12.0019C0 12.0019 0 8.10728 0.4942 6.22936C0.770871 5.20141 1.60125 4.37103 2.60943 4.09436C4.48753 3.59998 11.9998 3.59998 11.9998 3.59998C11.9998 3.59998 19.5122 3.59998 21.3903 4.11395ZM15.8549 12.0019L9.60791 15.6V8.40393L15.8549 12.0019Z" fill="#333333"/>
</g>
<defs>
<clipPath id="clip0_518_836">
<rect width="24" height="24" fill="white"/>
</clipPath>
</defs>
</svg>
