<svg width="1440" height="787" viewBox="0 0 1440 787" fill="none" xmlns="http://www.w3.org/2000/svg">
<g clip-path="url(#clip0_895_1257)">
<path d="M1102 552.919C1024.9 515.218 1003.16 434.86 1053.18 373.486C1103.21 312.112 1206.21 292.76 1283.31 330.461C1360.4 368.162 1382.14 448.52 1332.12 509.894C1282.1 571.269 1179.09 590.621 1102 552.919Z" stroke="url(#paint0_linear_895_1257)" stroke-width="2"/>
<rect width="1440" height="1016" fill="url(#paint1_linear_895_1257)"/>
<mask id="mask0_895_1257" style="mask-type:alpha" maskUnits="userSpaceOnUse" x="0" y="0" width="1440" height="1016">
<rect width="1440" height="1016" fill="url(#paint2_linear_895_1257)"/>
</mask>
<g mask="url(#mask0_895_1257)">
<g style="mix-blend-mode:lighten">
<ellipse cx="1311" cy="52.4999" rx="253" ry="246.5" transform="rotate(21.1741 1311 52.4999)" fill="url(#paint3_linear_895_1257)"/>
</g>
<g style="mix-blend-mode:lighten" filter="url(#filter0_d_895_1257)">
<ellipse cx="550.935" cy="828.77" rx="227" ry="221" transform="rotate(-172.491 550.935 828.77)" fill="url(#paint4_linear_895_1257)"/>
</g>
<g filter="url(#filter1_d_895_1257)">
<circle cx="1288.49" cy="646.614" r="175" transform="rotate(-61.3416 1288.49 646.614)" fill="url(#paint5_linear_895_1257)"/>
</g>
<circle cx="346.37" cy="292.37" r="400.205" transform="rotate(-47.6501 346.37 292.37)" fill="url(#paint6_linear_895_1257)"/>
<g style="mix-blend-mode:color-dodge" opacity="0.3">
<path d="M642.407 293.691C589.95 259.749 575.732 188.393 610.737 134.294C645.742 80.1956 716.658 63.926 769.115 97.8686C821.572 131.811 835.79 203.167 800.785 257.266C765.78 311.364 694.864 327.634 642.407 293.691Z" stroke="url(#paint7_linear_895_1257)" stroke-width="2"/>
</g>
<g style="mix-blend-mode:color-dodge" opacity="0.3">
<circle cx="1159.08" cy="578.08" r="289.781" transform="rotate(122.905 1159.08 578.08)" stroke="url(#paint8_linear_895_1257)" stroke-width="6" stroke-dasharray="4 4"/>
</g>
</g>
<rect x="-1.69092" y="-60.3337" width="1440" height="1016" fill="url(#paint9_linear_895_1257)"/>
<g style="mix-blend-mode:lighten">
<ellipse cx="1327.31" cy="11.1663" rx="253" ry="246.5" fill="url(#paint10_linear_895_1257)"/>
</g>
<circle cx="1225.88" cy="659.232" r="288.535" transform="rotate(-61.3416 1225.88 659.232)" fill="url(#paint11_linear_895_1257)"/>
<circle cx="417.068" cy="162.068" r="504.755" transform="rotate(-47.6501 417.068 162.068)" fill="url(#paint12_linear_895_1257)"/>
<g style="mix-blend-mode:color-dodge" opacity="0.3">
<path d="M819.874 188.407C818.721 187.741 817.576 187.054 816.438 186.345L816.967 185.496C816.403 185.144 815.841 184.787 815.281 184.425C814.721 184.063 814.165 183.696 813.613 183.326L813.056 184.156C811.943 183.409 810.846 182.646 809.767 181.867L810.352 181.056C809.27 180.276 808.206 179.481 807.159 178.67L806.547 179.461C805.486 178.64 804.442 177.803 803.417 176.951L804.055 176.182C803.032 175.333 802.027 174.469 801.04 173.591L800.375 174.338C799.372 173.446 798.387 172.538 797.419 171.617L798.109 170.893C797.147 169.976 796.203 169.045 795.277 168.1L794.563 168.8C793.625 167.843 792.705 166.872 791.804 165.888L792.542 165.213C791.644 164.232 790.765 163.237 789.905 162.229L789.144 162.879C788.274 161.86 787.423 160.828 786.591 159.783L787.374 159.16C786.546 158.121 785.738 157.07 784.949 156.007L784.146 156.603C783.348 155.527 782.568 154.438 781.809 153.338L782.632 152.77C781.877 151.677 781.142 150.573 780.427 149.457L779.585 149.997C778.862 148.871 778.159 147.733 777.476 146.584L778.336 146.073C777.657 144.932 776.998 143.78 776.359 142.617L775.483 143.099C774.838 141.926 774.213 140.743 773.608 139.551L774.5 139.098C773.9 137.915 773.32 136.722 772.761 135.519L771.854 135.942C771.289 134.728 770.745 133.506 770.221 132.275L771.141 131.883C770.621 130.662 770.122 129.433 769.643 128.196L768.711 128.556C768.228 127.309 767.766 126.053 767.324 124.79L768.268 124.46C767.831 123.208 767.414 121.948 767.017 120.681L766.063 120.98C765.664 119.703 765.285 118.42 764.928 117.131L765.891 116.863C765.537 115.585 765.203 114.3 764.891 113.01L763.919 113.246C763.604 111.946 763.31 110.641 763.037 109.33L764.016 109.126C763.746 107.828 763.497 106.525 763.269 105.217L762.284 105.389C762.054 104.071 761.845 102.749 761.658 101.424L762.648 101.284C762.463 99.9705 762.299 98.6534 762.156 97.333L761.161 97.4407C761.017 96.112 760.895 94.7799 760.793 93.445L761.791 93.3694C761.69 92.047 761.611 90.7219 761.553 89.3946L760.554 89.4381C760.496 88.1026 760.46 86.7648 760.444 85.4254L761.444 85.4141C761.429 84.0889 761.435 82.7621 761.463 81.4342L760.463 81.4134C760.491 80.0772 760.54 78.7399 760.611 77.4021L761.609 77.4549C761.679 76.1308 761.771 74.8062 761.883 73.4816L760.887 73.3969C761 72.0663 761.135 70.7358 761.291 69.4058L762.284 69.5224C762.438 68.206 762.614 66.8901 762.811 65.5753L761.822 65.4271C762.02 64.1055 762.24 62.7851 762.481 61.4662L763.464 61.646C763.703 60.3435 763.962 59.0427 764.242 57.7439L763.265 57.5328C763.546 56.2273 763.85 54.9238 764.174 53.6229L765.144 53.865C765.465 52.5792 765.807 51.296 766.17 50.0158L765.208 49.743C765.572 48.4597 765.957 47.1795 766.363 45.9028L767.316 46.2061C767.718 44.9438 768.141 43.6849 768.584 42.4301L767.642 42.0968C768.087 40.8381 768.553 39.5835 769.04 38.3334L769.971 38.6964C770.452 37.4639 770.952 36.2358 771.474 35.0126L770.554 34.6204C771.078 33.3922 771.622 32.1689 772.187 30.951L773.094 31.372C773.652 30.1718 774.229 28.9767 774.827 27.7875L773.933 27.3383C774.532 26.1475 775.151 24.9625 775.791 23.7836L776.67 24.2604C777.301 23.0956 777.953 21.9368 778.626 20.7844L777.762 20.2805C778.433 19.1305 779.124 17.987 779.835 16.8502L780.682 17.3805C781.035 16.8165 781.393 16.2541 781.756 15.6936C782.118 15.133 782.485 14.5763 782.855 14.0234L782.023 13.4673C782.769 12.353 783.529 11.2542 784.303 10.171L785.117 10.7524C785.893 9.66706 786.682 8.59749 787.486 7.54383L786.691 6.93738C787.504 5.87099 788.332 4.82075 789.173 3.78675L789.948 4.41768C790.788 3.38494 791.642 2.36855 792.508 1.36862L791.753 0.713701C792.632 -0.300964 793.525 -1.29883 794.431 -2.27977L795.165 -1.60139C796.067 -2.57835 796.982 -3.53839 797.91 -4.48143L797.197 -5.18264C798.138 -6.13918 799.091 -7.07834 800.057 -8.00002L800.747 -7.27659C801.71 -8.19546 802.685 -9.09682 803.672 -9.98054L803.005 -10.7255C804.003 -11.6192 805.013 -12.4951 806.035 -13.3529L806.678 -12.5871C807.697 -13.4429 808.727 -14.2806 809.769 -15.1001L809.15 -15.8859C810.204 -16.715 811.269 -17.5257 812.344 -18.3178L812.937 -17.5126C814.007 -18.3006 815.088 -19.07 816.178 -19.8208L815.611 -20.6445C816.715 -21.4048 817.83 -22.146 818.954 -22.8683L819.495 -22.0269C820.613 -22.7454 821.742 -23.4449 822.879 -24.1252L822.366 -24.9834C823.515 -25.6708 824.674 -26.3387 825.841 -26.9871L826.327 -26.113C827.489 -26.7585 828.66 -27.3845 829.839 -27.9909L829.381 -28.8802C830.573 -29.4929 831.772 -30.0857 832.98 -30.6585L833.409 -29.755C834.609 -30.3242 835.816 -30.8735 837.031 -31.4028L836.632 -32.3196C837.86 -32.8546 839.095 -33.3692 840.337 -33.8635L840.707 -32.9343C841.942 -33.4255 843.183 -33.8963 844.43 -34.3467L844.091 -35.2872C845.35 -35.7419 846.615 -36.1758 847.886 -36.5889L848.195 -35.6379C849.458 -36.0484 850.727 -36.4382 852.001 -36.8072L851.723 -37.7677C853.009 -38.1402 854.3 -38.4916 855.596 -38.8219L855.843 -37.8528C857.129 -38.1807 858.42 -38.4874 859.716 -38.773L859.5 -39.7496C860.807 -40.0378 862.118 -40.3046 863.433 -40.5499L863.617 -39.5668C864.922 -39.8103 866.23 -40.0324 867.541 -40.233L867.39 -41.2215C868.713 -41.4238 870.039 -41.6043 871.367 -41.7631L871.486 -40.7702C872.803 -40.9277 874.123 -41.0635 875.445 -41.1775L875.359 -42.1738C876.692 -42.2887 878.027 -42.3817 879.363 -42.4526L879.416 -41.454C880.741 -41.5242 882.067 -41.5725 883.394 -41.5988L883.374 -42.5986C884.711 -42.6251 886.049 -42.6293 887.388 -42.6112L887.374 -41.6113C888.7 -41.5934 890.026 -41.5533 891.352 -41.491L891.399 -42.4899C892.734 -42.4271 894.07 -42.3419 895.404 -42.2341L895.323 -41.2374C896.645 -41.1306 897.966 -41.0016 899.286 -40.8501L899.4 -41.8435C900.727 -41.6911 902.053 -41.5162 903.377 -41.3186L903.23 -40.3295C904.54 -40.1339 905.849 -39.9159 907.154 -39.6755L907.336 -40.6589C908.65 -40.4168 909.963 -40.152 911.272 -39.8645L911.057 -38.8878C912.35 -38.6037 913.64 -38.2973 914.927 -37.9683L915.175 -38.9372C916.468 -38.6063 917.759 -38.2529 919.045 -37.8768L918.764 -36.917C920.035 -36.545 921.303 -36.1506 922.566 -35.7337L922.879 -36.6833C924.146 -36.265 925.409 -35.8242 926.666 -35.3608L926.32 -34.4225C927.562 -33.965 928.798 -33.4852 930.029 -32.9831L930.406 -33.909C931.643 -33.4044 932.874 -32.8773 934.1 -32.3278L933.69 -31.4154C934.896 -30.8744 936.096 -30.3115 937.29 -29.7264L937.73 -30.6243C938.927 -30.0374 940.118 -29.4284 941.301 -28.7973L940.831 -27.9149C942 -27.2918 943.161 -26.6469 944.316 -25.9801L944.816 -26.846C945.968 -26.1802 947.114 -25.4928 948.251 -24.7836L947.722 -23.935C948.286 -23.5834 948.849 -23.2263 949.409 -22.8639C949.969 -22.5014 950.525 -22.135 951.077 -21.7645L951.634 -22.5948C952.747 -21.8477 953.844 -21.0846 954.923 -20.306L954.338 -19.4949C955.419 -18.7151 956.484 -17.9197 957.531 -17.109L958.143 -17.8997C959.204 -17.0786 960.247 -16.2419 961.273 -15.3903L960.635 -14.6209C961.657 -13.772 962.662 -12.908 963.65 -12.0297L964.315 -12.7769C965.318 -11.8845 966.303 -10.9774 967.27 -10.0559L966.581 -9.3319C967.543 -8.4151 968.487 -7.484 969.413 -6.53913L970.127 -7.23907C971.065 -6.28208 971.985 -5.31108 972.885 -4.3266L972.148 -3.65153C973.045 -2.67041 973.924 -1.67577 974.785 -0.668168L975.545 -1.31754C976.415 -0.298655 977.266 0.733373 978.098 1.77801L977.316 2.40098C978.143 3.43967 978.951 4.49093 979.74 5.55423L980.544 4.95832C981.342 6.0346 982.121 7.1231 982.881 8.22326L982.058 8.79145C982.813 9.88411 983.548 10.9884 984.263 12.1037L985.105 11.5638C985.828 12.6905 986.53 13.8284 987.213 14.977L986.354 15.4881C987.033 16.6296 987.692 17.7816 988.331 18.9437L989.207 18.4618C989.852 19.6348 990.477 20.8179 991.081 22.0105L990.19 22.4626C990.79 23.6463 991.369 24.8395 991.929 26.0416L992.836 25.6196C993.401 26.8329 993.945 28.0554 994.469 29.2862L993.549 29.6779C994.069 30.8989 994.568 32.1283 995.047 33.3655L995.979 33.0046C996.462 34.2524 996.924 35.5081 997.365 36.7711L996.421 37.1009C996.859 38.3535 997.276 39.6133 997.672 40.8798L998.627 40.5812C999.026 41.8578 999.405 43.1411 999.762 44.4305L998.798 44.6977C999.153 45.9762 999.486 47.2608 999.799 48.551L1000.77 48.3155C1001.09 49.6152 1001.38 50.9206 1001.65 52.231L1000.67 52.4347C1000.94 53.7331 1001.19 55.0365 1001.42 56.3444L1002.41 56.1726C1002.64 57.49 1002.84 58.8118 1003.03 60.1375L1002.04 60.2773C1002.23 61.5906 1002.39 62.9077 1002.53 64.2281L1003.53 64.1204C1003.67 65.4492 1003.8 66.7812 1003.9 68.1161L1002.9 68.1917C1003 69.5141 1003.08 70.8392 1003.14 72.1665L1004.14 72.123C1004.19 73.4586 1004.23 74.7963 1004.25 76.1357L1003.25 76.147C1003.26 77.4722 1003.25 78.7991 1003.23 80.127L1004.23 80.1477C1004.2 81.4839 1004.15 82.8212 1004.08 84.159L1003.08 84.1062C1003.01 85.4303 1002.92 86.7549 1002.81 88.0795L1003.8 88.1643C1003.69 89.4948 1003.56 90.8253 1003.4 92.1553L1002.41 92.0387C1002.25 93.3552 1002.08 94.671 1001.88 95.9858L1002.87 96.134C1002.67 97.4556 1002.45 98.776 1002.21 100.095L1001.23 99.9151C1000.99 101.218 1000.73 102.518 1000.45 103.817L1001.43 104.028C1001.14 105.334 1000.84 106.637 1000.52 107.938L999.545 107.696C999.225 108.982 998.883 110.265 998.52 111.545L999.482 111.818C999.118 113.101 998.733 114.382 998.326 115.658L997.373 115.355C996.972 116.617 996.549 117.876 996.105 119.131L997.048 119.464C996.603 120.723 996.137 121.978 995.65 123.228L994.718 122.865C994.238 124.097 993.737 125.325 993.216 126.548L994.136 126.941C993.612 128.169 993.068 129.392 992.502 130.61L991.595 130.189C991.038 131.389 990.461 132.584 989.863 133.774L990.756 134.223C990.158 135.414 989.539 136.599 988.899 137.778L988.02 137.301C987.388 138.466 986.736 139.624 986.064 140.777L986.928 141.281C986.257 142.431 985.566 143.574 984.855 144.711L984.007 144.181C983.655 144.745 983.297 145.307 982.934 145.868C982.572 146.428 982.205 146.985 981.835 147.538L982.666 148.094C981.921 149.208 981.161 150.307 980.386 151.39L979.573 150.809C978.797 151.894 978.007 152.964 977.204 154.017L977.999 154.624C977.185 155.69 976.358 156.74 975.517 157.774L974.741 157.143C973.901 158.176 973.048 159.193 972.181 160.192L972.937 160.847C972.058 161.862 971.165 162.86 970.259 163.841L969.524 163.162C968.622 164.139 967.707 165.1 966.78 166.043L967.493 166.744C966.552 167.7 965.598 168.639 964.633 169.561L963.942 168.838C962.979 169.757 962.004 170.658 961.017 171.542L961.685 172.287C960.687 173.18 959.677 174.056 958.655 174.914L958.012 174.148C956.993 175.004 955.962 175.842 954.921 176.661L955.539 177.447C954.486 178.276 953.421 179.087 952.346 179.879L951.753 179.074C950.683 179.862 949.602 180.631 948.512 181.382L949.079 182.206C947.974 182.966 946.86 183.707 945.736 184.429L945.195 183.588C944.076 184.307 942.948 185.006 941.811 185.686L942.324 186.545C941.175 187.232 940.016 187.9 938.849 188.548L938.363 187.674C937.201 188.32 936.03 188.946 934.851 189.552L935.308 190.441C934.117 191.054 932.917 191.647 931.71 192.22L931.281 191.316C930.081 191.885 928.873 192.435 927.658 192.964L928.058 193.881C926.83 194.416 925.594 194.93 924.352 195.425L923.983 194.495C922.748 194.987 921.507 195.457 920.26 195.908L920.599 196.848C919.34 197.303 918.075 197.737 916.804 198.15L916.495 197.199C915.231 197.61 913.963 197.999 912.689 198.368L912.967 199.329C911.681 199.701 910.39 200.053 909.094 200.383L908.847 199.414C907.56 199.742 906.269 200.049 904.974 200.334L905.19 201.311C903.883 201.599 902.571 201.866 901.257 202.111L901.073 201.128C899.768 201.371 898.46 201.594 897.148 201.794L897.299 202.783C895.977 202.985 894.651 203.165 893.323 203.324L893.204 202.331C891.887 202.489 890.566 202.625 889.245 202.739L889.33 203.735C887.998 203.85 886.663 203.943 885.327 204.014L885.274 203.015C883.949 203.085 882.623 203.134 881.296 203.16L881.316 204.16C879.979 204.186 878.64 204.19 877.302 204.172L877.316 203.172C875.99 203.154 874.664 203.114 873.338 203.052L873.291 204.051C871.955 203.988 870.62 203.903 869.286 203.795L869.366 202.798C868.045 202.692 866.724 202.563 865.404 202.411L865.29 203.405C863.963 203.252 862.637 203.077 861.313 202.88L861.46 201.891C860.15 201.695 858.841 201.477 857.535 201.237L857.354 202.22C856.039 201.978 854.727 201.713 853.418 201.426L853.633 200.449C852.339 200.165 851.049 199.858 849.763 199.529L849.515 200.498C848.221 200.167 846.931 199.814 845.645 199.438L845.926 198.478C844.654 198.106 843.387 197.712 842.124 197.295L841.81 198.244C840.543 197.826 839.281 197.385 838.024 196.922L838.369 195.984C837.128 195.526 835.892 195.046 834.661 194.544L834.283 195.47C833.047 194.965 831.815 194.438 830.59 193.889L831 192.976C829.794 192.436 828.594 191.873 827.4 191.288L826.96 192.185C825.763 191.599 824.572 190.99 823.388 190.358L823.859 189.476C822.69 188.853 821.529 188.208 820.374 187.541L819.874 188.407Z" stroke="url(#paint13_linear_895_1257)" stroke-width="2" stroke-dasharray="4 4"/>
</g>
<g style="mix-blend-mode:color-dodge" opacity="0.3">
<path d="M1151.92 746.702C1150.79 746.009 1149.66 745.304 1148.53 744.589L1149.07 743.745C1148.51 743.388 1147.95 743.03 1147.39 742.668C1146.83 742.306 1146.27 741.943 1145.72 741.577L1145.17 742.412C1144.06 741.678 1142.95 740.936 1141.85 740.186L1142.42 739.36C1141.32 738.613 1140.24 737.858 1139.16 737.096L1138.58 737.912C1137.5 737.143 1136.42 736.366 1135.35 735.581L1135.95 734.775C1134.87 733.989 1133.81 733.195 1132.76 732.393L1132.15 733.189C1131.09 732.384 1130.04 731.571 1129 730.751L1129.62 729.966C1128.58 729.146 1127.55 728.319 1126.53 727.485L1125.9 728.26C1124.86 727.417 1123.84 726.566 1122.82 725.708L1123.47 724.944C1122.45 724.09 1121.45 723.228 1120.46 722.359L1119.8 723.112C1118.8 722.237 1117.81 721.354 1116.82 720.465L1117.49 719.723C1116.51 718.832 1115.53 717.934 1114.57 717.029L1113.88 717.759C1112.91 716.85 1111.95 715.934 1111 715.011L1111.7 714.292C1110.75 713.371 1109.8 712.443 1108.87 711.508L1108.16 712.214C1107.22 711.27 1106.29 710.32 1105.37 709.362L1106.09 708.668C1105.17 707.714 1104.26 706.754 1103.36 705.787L1102.63 706.468C1101.72 705.495 1100.83 704.515 1099.94 703.529L1100.68 702.86C1099.8 701.874 1098.92 700.881 1098.05 699.882L1097.29 700.538C1096.42 699.534 1095.56 698.524 1094.71 697.507L1095.47 696.864C1094.62 695.85 1093.78 694.83 1092.95 693.803L1092.17 694.433C1091.33 693.398 1090.5 692.357 1089.68 691.31L1090.47 690.694C1089.66 689.652 1088.85 688.603 1088.05 687.548L1087.26 688.151C1086.45 687.09 1085.66 686.023 1084.88 684.95L1085.69 684.361C1084.91 683.29 1084.14 682.213 1083.37 681.13L1082.56 681.705C1081.79 680.618 1081.04 679.524 1080.29 678.425L1081.12 677.864C1080.38 676.768 1079.64 675.667 1078.92 674.56L1078.08 675.107C1077.36 673.993 1076.64 672.874 1075.93 671.749L1076.78 671.216C1076.07 670.096 1075.37 668.97 1074.69 667.839L1073.83 668.358C1073.14 667.221 1072.47 666.078 1071.8 664.931L1072.66 664.427C1071.99 663.283 1071.34 662.133 1070.69 660.979L1069.82 661.468C1069.17 660.309 1068.52 659.145 1067.89 657.975L1068.77 657.501C1068.15 656.335 1067.53 655.165 1066.92 653.99L1066.03 654.45C1065.42 653.269 1064.82 652.083 1064.23 650.892L1065.12 650.447C1064.54 649.262 1063.96 648.072 1063.39 646.877L1062.49 647.307C1061.91 646.106 1061.35 644.901 1060.8 643.692L1061.71 643.277C1061.16 642.072 1060.63 640.863 1060.1 639.649L1059.18 640.049C1058.65 638.83 1058.13 637.607 1057.62 636.38L1058.54 635.996C1058.03 634.774 1057.54 633.547 1057.05 632.317L1056.12 632.686C1055.63 631.45 1055.15 630.21 1054.68 628.967L1055.62 628.614C1055.15 627.375 1054.69 626.133 1054.24 624.887L1053.3 625.225C1052.85 623.974 1052.42 622.719 1051.99 621.461L1052.93 621.138C1052.51 619.885 1052.09 618.629 1051.69 617.369L1050.73 617.675C1050.33 616.41 1049.93 615.141 1049.54 613.869L1050.5 613.578C1050.11 612.312 1049.74 611.043 1049.38 609.77L1048.42 610.045C1048.05 608.767 1047.69 607.486 1047.35 606.202L1048.32 605.943C1047.97 604.665 1047.64 603.383 1047.32 602.098L1046.35 602.342C1046.02 601.053 1045.71 599.762 1045.41 598.468L1046.38 598.24C1046.08 596.951 1045.79 595.66 1045.51 594.366L1044.53 594.578C1044.25 593.278 1043.98 591.976 1043.72 590.672L1044.7 590.476C1044.44 589.179 1044.19 587.879 1043.96 586.577L1042.97 586.757C1042.73 585.45 1042.5 584.141 1042.29 582.829L1043.27 582.665C1043.06 581.359 1042.85 580.051 1042.65 578.74L1041.66 578.888C1041.47 577.575 1041.28 576.259 1041.11 574.942L1042.1 574.81C1041.92 573.498 1041.76 572.185 1041.61 570.869L1040.61 570.985C1040.46 569.664 1040.32 568.342 1040.18 567.018L1041.18 566.919C1041.05 565.603 1040.93 564.286 1040.82 562.967L1039.82 563.05C1039.71 561.726 1039.61 560.401 1039.52 559.074L1040.52 559.006C1040.43 557.685 1040.35 556.363 1040.28 555.039L1039.28 555.091C1039.21 553.765 1039.15 552.438 1039.11 551.11L1040.11 551.075C1040.06 549.752 1040.02 548.429 1040 547.104L1039 547.124C1038.97 545.795 1038.96 544.465 1038.95 543.134L1039.95 543.131C1039.95 541.809 1039.95 540.486 1039.97 539.163L1038.97 539.15C1038.99 537.821 1039.01 536.492 1039.05 535.162L1040.05 535.191C1040.09 533.868 1040.14 532.544 1040.2 531.22L1039.2 531.175C1039.26 529.849 1039.33 528.523 1039.41 527.197L1040.41 527.258C1040.49 525.937 1040.58 524.615 1040.68 523.294L1039.68 523.217C1039.79 521.892 1039.9 520.567 1040.02 519.242L1041.02 519.334C1041.14 518.019 1041.27 516.703 1041.42 515.387L1040.42 515.279C1040.57 513.958 1040.72 512.637 1040.89 511.317L1041.88 511.441C1042.05 510.128 1042.22 508.815 1042.41 507.502L1041.42 507.362C1041.6 506.048 1041.8 504.735 1042.01 503.423L1043 503.579C1043.2 502.272 1043.42 500.965 1043.65 499.66L1042.66 499.488C1042.89 498.178 1043.13 496.87 1043.38 495.562L1044.36 495.75C1044.61 494.452 1044.87 493.155 1045.14 491.86L1044.16 491.657C1044.43 490.356 1044.71 489.056 1045 487.757L1045.97 487.976C1046.26 486.684 1046.56 485.393 1046.88 484.104L1045.9 483.87C1046.21 482.581 1046.54 481.293 1046.87 480.007L1047.84 480.256C1048.17 478.975 1048.51 477.695 1048.86 476.417L1047.89 476.152C1048.25 474.87 1048.61 473.59 1048.98 472.311L1049.94 472.591C1050.31 471.324 1050.69 470.059 1051.09 468.795L1050.13 468.499C1050.52 467.231 1050.93 465.963 1051.34 464.698L1052.29 465.009C1052.7 463.75 1053.12 462.493 1053.56 461.238L1052.61 460.912C1053.04 459.66 1053.49 458.409 1053.94 457.161L1054.88 457.501C1055.33 456.258 1055.79 455.016 1056.26 453.777L1055.33 453.422C1055.8 452.178 1056.28 450.937 1056.78 449.698L1057.71 450.068C1058.2 448.843 1058.69 447.621 1059.2 446.4L1058.28 446.015C1058.79 444.79 1059.31 443.567 1059.84 442.347L1060.76 442.746C1061.29 441.531 1061.83 440.318 1062.38 439.108L1061.47 438.694C1062.02 437.489 1062.58 436.287 1063.14 435.088L1064.05 435.516C1064.61 434.321 1065.19 433.129 1065.78 431.94L1064.88 431.498C1065.47 430.305 1066.07 429.114 1066.67 427.926L1067.56 428.382C1068.17 427.208 1068.78 426.038 1069.4 424.87L1068.52 424.4C1069.14 423.23 1069.77 422.062 1070.42 420.898L1071.29 421.381C1071.93 420.221 1072.58 419.065 1073.24 417.911L1072.38 417.414C1073.04 416.264 1073.7 415.118 1074.38 413.975L1075.24 414.485C1075.92 413.35 1076.6 412.219 1077.29 411.09L1076.44 410.567C1077.14 409.434 1077.85 408.305 1078.56 407.179L1079.41 407.716C1079.57 407.452 1079.74 407.189 1079.91 406.926C1080.1 406.629 1080.29 406.332 1080.48 406.036C1080.84 405.477 1081.21 404.92 1081.57 404.365L1080.74 403.815C1081.47 402.7 1082.21 401.593 1082.96 400.494L1083.79 401.056C1084.53 399.961 1085.28 398.874 1086.04 397.794L1085.23 397.219C1085.99 396.132 1086.76 395.052 1087.54 393.98L1088.35 394.568C1089.13 393.492 1089.92 392.424 1090.71 391.364L1089.91 390.764C1090.71 389.7 1091.52 388.644 1092.33 387.596L1093.12 388.208C1093.93 387.163 1094.75 386.125 1095.57 385.096L1094.79 384.471C1095.63 383.429 1096.47 382.394 1097.32 381.369L1098.09 382.006C1098.93 380.984 1099.78 379.97 1100.64 378.964L1099.88 378.315C1100.74 377.306 1101.61 376.304 1102.48 375.311L1103.23 375.972C1104.11 374.974 1105 373.984 1105.89 373.003L1105.15 372.331C1106.04 371.346 1106.95 370.369 1107.85 369.401L1108.58 370.085C1109.49 369.121 1110.4 368.165 1111.32 367.217L1110.6 366.522C1111.53 365.563 1112.46 364.614 1113.4 363.672L1114.11 364.379C1115.04 363.441 1115.99 362.512 1116.94 361.591L1116.24 360.873C1117.19 359.949 1118.15 359.033 1119.12 358.126L1119.8 358.855C1120.77 357.946 1121.75 357.046 1122.73 356.155L1122.05 355.415C1123.04 354.519 1124.03 353.632 1125.02 352.754L1125.69 353.504C1126.68 352.629 1127.68 351.763 1128.68 350.907L1128.03 350.146C1129.04 349.281 1130.06 348.425 1131.09 347.578L1131.73 348.349C1132.75 347.505 1133.78 346.669 1134.81 345.843L1134.18 345.062C1135.22 344.232 1136.26 343.411 1137.31 342.6L1137.93 343.39C1138.97 342.579 1140.03 341.776 1141.09 340.982L1140.49 340.182C1141.55 339.384 1142.62 338.595 1143.7 337.816L1144.29 338.626C1145.36 337.85 1146.44 337.083 1147.52 336.325L1146.94 335.506C1148.03 334.742 1149.13 333.988 1150.23 333.243L1150.79 334.071C1151.89 333.328 1152.99 332.595 1154.1 331.87L1153.55 331.033C1154.67 330.306 1155.78 329.589 1156.9 328.881L1157.44 329.727C1158.56 329.019 1159.68 328.321 1160.82 327.632L1160.3 326.778C1161.43 326.086 1162.57 325.404 1163.72 324.731L1164.23 325.593C1165.37 324.923 1166.51 324.262 1167.66 323.611L1167.17 322.741C1168.33 322.085 1169.49 321.44 1170.66 320.804L1171.14 321.682C1172.3 321.047 1173.47 320.423 1174.64 319.808L1174.18 318.923C1175.35 318.306 1176.53 317.698 1177.72 317.101L1178.17 317.994C1179.35 317.397 1180.54 316.81 1181.73 316.233L1181.3 315.333C1182.49 314.753 1183.69 314.184 1184.9 313.624L1185.32 314.531C1186.52 313.973 1187.72 313.425 1188.93 312.888L1188.53 311.974C1189.74 311.433 1190.96 310.902 1192.18 310.381L1192.58 311.301C1193.79 310.781 1195.02 310.272 1196.24 309.773L1195.86 308.847C1197.1 308.346 1198.33 307.855 1199.57 307.374L1199.93 308.306C1201.16 307.826 1202.4 307.356 1203.64 306.896L1203.3 305.959C1204.54 305.497 1205.79 305.045 1207.05 304.604L1207.38 305.548C1208.63 305.108 1209.88 304.679 1211.13 304.26L1210.82 303.312C1212.08 302.89 1213.34 302.479 1214.61 302.078L1214.91 303.032C1216.18 302.633 1217.44 302.244 1218.71 301.865L1218.42 300.907C1219.7 300.527 1220.97 300.158 1222.25 299.799L1222.52 300.761C1223.8 300.403 1225.08 300.055 1226.36 299.718L1226.1 298.751C1227.39 298.412 1228.67 298.084 1229.97 297.766L1230.2 298.737C1231.49 298.421 1232.78 298.115 1234.07 297.819L1233.84 296.845C1235.14 296.548 1236.44 296.261 1237.74 295.986L1237.95 296.964C1239.24 296.689 1240.54 296.425 1241.84 296.172L1241.65 295.19C1242.95 294.936 1244.26 294.692 1245.56 294.459L1245.74 295.444C1247.04 295.212 1248.35 294.99 1249.66 294.779L1249.5 293.792C1250.81 293.58 1252.12 293.379 1253.44 293.189L1253.58 294.179C1254.89 293.989 1256.2 293.811 1257.52 293.643L1257.39 292.651C1258.71 292.482 1260.03 292.325 1261.35 292.178L1261.46 293.172C1262.78 293.025 1264.09 292.89 1265.41 292.765L1265.32 291.77C1266.64 291.645 1267.96 291.53 1269.29 291.427L1269.37 292.424C1270.69 292.321 1272.01 292.229 1273.33 292.148L1273.27 291.15C1274.59 291.069 1275.92 290.998 1277.25 290.939L1277.29 291.938C1278.61 291.879 1279.94 291.831 1281.26 291.793L1281.23 290.794C1282.56 290.757 1283.89 290.73 1285.22 290.715L1285.23 291.715C1286.55 291.7 1287.88 291.696 1289.2 291.702L1289.21 290.702C1290.54 290.709 1291.87 290.727 1293.19 290.756L1293.17 291.756C1294.5 291.785 1295.82 291.825 1297.14 291.876L1297.18 290.877C1298.51 290.928 1299.84 290.991 1301.16 291.064L1301.11 292.063C1302.43 292.136 1303.75 292.22 1305.07 292.316L1305.14 291.318C1306.47 291.414 1307.79 291.521 1309.12 291.639L1309.03 292.635C1310.35 292.753 1311.66 292.882 1312.98 293.022L1313.09 292.027C1314.41 292.168 1315.73 292.319 1317.05 292.482L1316.92 293.474C1318.24 293.636 1319.55 293.81 1320.86 293.994L1321 293.004C1322.31 293.189 1323.63 293.385 1324.94 293.592L1324.79 294.58C1326.09 294.787 1327.4 295.004 1328.7 295.233L1328.88 294.248C1330.18 294.477 1331.49 294.718 1332.8 294.97L1332.61 295.952C1333.91 296.202 1335.21 296.464 1336.5 296.738L1336.71 295.759C1338.01 296.033 1339.3 296.318 1340.6 296.614L1340.38 297.589C1341.67 297.884 1342.95 298.189 1344.24 298.506L1344.48 297.535C1345.77 297.854 1347.06 298.183 1348.35 298.524L1348.09 299.491C1349.37 299.829 1350.64 300.179 1351.92 300.54L1352.19 299.577C1353.47 299.939 1354.74 300.312 1356.01 300.696L1355.73 301.654C1356.99 302.036 1358.26 302.43 1359.52 302.835L1359.83 301.883C1361.09 302.288 1362.35 302.704 1363.61 303.131L1363.29 304.078C1364.54 304.503 1365.79 304.939 1367.03 305.387L1367.37 304.445C1368.62 304.895 1369.87 305.355 1371.12 305.827L1370.77 306.762C1372 307.229 1373.23 307.708 1374.46 308.197L1374.83 307.268C1376.06 307.759 1377.29 308.26 1378.52 308.773L1378.14 309.696C1379.36 310.207 1380.58 310.728 1381.79 311.261L1382.19 310.346C1383.41 310.878 1384.62 311.421 1385.83 311.975L1385.41 312.884C1386.61 313.435 1387.81 313.997 1389 314.569L1389.43 313.668C1390.63 314.243 1391.83 314.829 1393.02 315.427L1392.57 316.321C1393.75 316.912 1394.93 317.514 1396.1 318.127L1396.57 317.24C1397.74 317.854 1398.91 318.479 1400.08 319.114L1399.6 319.993C1400.77 320.626 1401.93 321.269 1403.08 321.924L1403.58 321.054C1404.73 321.707 1405.88 322.372 1407.03 323.047L1406.52 323.908C1407.65 324.578 1408.79 325.258 1409.92 325.949L1410.44 325.096C1411.57 325.789 1412.7 326.494 1413.83 327.209L1413.29 328.053C1413.85 328.41 1414.41 328.769 1414.97 329.13C1415.53 329.492 1416.09 329.855 1416.64 330.221L1417.19 329.386C1418.31 330.12 1419.41 330.862 1420.51 331.612L1419.95 332.438C1421.04 333.185 1422.12 333.94 1423.2 334.702L1423.78 333.886C1424.86 334.655 1425.94 335.432 1427.01 336.217L1426.42 337.023C1427.49 337.809 1428.55 338.603 1429.6 339.405L1430.21 338.609C1431.27 339.414 1432.32 340.227 1433.36 341.047L1432.74 341.832C1433.78 342.652 1434.81 343.479 1435.83 344.313L1436.47 343.538C1437.5 344.381 1438.53 345.232 1439.54 346.09L1438.9 346.854C1439.91 347.708 1440.91 348.57 1441.9 349.439L1442.56 348.687C1443.56 349.561 1444.56 350.444 1445.54 351.333L1444.87 352.075C1445.85 352.966 1446.83 353.864 1447.79 354.769L1448.48 354.039C1449.45 354.948 1450.41 355.864 1451.36 356.788L1450.67 357.506C1451.62 358.427 1452.56 359.355 1453.49 360.29L1454.2 359.584C1455.14 360.528 1456.07 361.479 1456.99 362.436L1456.27 363.13C1457.19 364.084 1458.1 365.044 1459 366.011L1459.73 365.33C1460.64 366.303 1461.54 367.283 1462.42 368.269L1461.68 368.938C1462.57 369.924 1463.44 370.917 1464.31 371.916L1465.07 371.26C1465.94 372.264 1466.8 373.274 1467.66 374.291L1466.89 374.934C1467.74 375.948 1468.58 376.968 1469.41 377.995L1470.19 377.365C1471.03 378.4 1471.86 379.441 1472.68 380.488L1471.89 381.104C1472.71 382.147 1473.51 383.195 1474.31 384.25L1475.11 383.647C1475.91 384.708 1476.7 385.775 1477.48 386.848L1476.67 387.437C1477.46 388.508 1478.23 389.585 1478.99 390.668L1479.81 390.093C1480.57 391.18 1481.33 392.274 1482.07 393.373L1481.24 393.934C1481.99 395.03 1482.72 396.131 1483.44 397.238L1484.28 396.691C1485.01 397.805 1485.73 398.924 1486.43 400.049L1485.59 400.582C1486.29 401.702 1486.99 402.828 1487.67 403.959L1488.53 403.44C1489.22 404.577 1489.9 405.72 1490.57 406.867L1489.7 407.371C1490.37 408.515 1491.03 409.665 1491.68 410.819L1492.55 410.33C1493.2 411.489 1493.84 412.653 1494.47 413.823L1493.59 414.297C1494.22 415.463 1494.83 416.633 1495.44 417.808L1496.33 417.349C1496.94 418.53 1497.54 419.715 1498.13 420.906L1497.24 421.351C1497.83 422.536 1498.41 423.726 1498.97 424.921L1499.88 424.491C1500.45 425.692 1501.01 426.897 1501.56 428.106L1500.65 428.521C1501.2 429.726 1501.74 430.935 1502.27 432.149L1503.18 431.749C1503.71 432.968 1504.23 434.191 1504.74 435.418L1503.82 435.802C1504.33 437.024 1504.83 438.251 1505.31 439.481L1506.24 439.112C1506.73 440.348 1507.21 441.588 1507.68 442.831L1506.75 443.184C1507.21 444.423 1507.67 445.665 1508.12 446.911L1509.06 446.573C1509.51 447.824 1509.95 449.079 1510.38 450.338L1509.43 450.66C1509.86 451.913 1510.27 453.169 1510.68 454.429L1511.63 454.123C1512.04 455.388 1512.43 456.657 1512.82 457.929L1511.86 458.22C1512.25 459.486 1512.62 460.756 1512.99 462.028L1513.95 461.753C1514.31 463.031 1514.67 464.312 1515.01 465.596L1514.05 465.855C1514.39 467.133 1514.72 468.415 1515.05 469.7L1516.02 469.456C1516.34 470.745 1516.65 472.036 1516.95 473.33L1515.98 473.558C1516.28 474.847 1516.57 476.138 1516.85 477.432L1517.83 477.22C1518.11 478.52 1518.38 479.822 1518.64 481.126L1517.66 481.322C1517.92 482.619 1518.17 483.919 1518.41 485.221L1519.39 485.041C1519.63 486.348 1519.86 487.657 1520.08 488.969L1519.09 489.133C1519.31 490.439 1519.51 491.748 1519.71 493.058L1520.7 492.91C1520.89 494.223 1521.08 495.539 1521.25 496.856L1520.26 496.988C1520.44 498.3 1520.6 499.613 1520.76 500.929L1521.75 500.813C1521.9 502.134 1522.05 503.456 1522.18 504.78L1521.18 504.879C1521.32 506.195 1521.44 507.513 1521.55 508.831L1522.54 508.748C1522.65 510.072 1522.76 511.397 1522.85 512.724L1521.85 512.792C1521.94 514.113 1522.02 515.435 1522.08 516.759L1523.08 516.707C1523.15 518.033 1523.21 519.36 1523.26 520.688L1522.26 520.723C1522.3 522.046 1522.34 523.369 1522.37 524.694L1523.37 524.674C1523.39 526.003 1523.41 527.333 1523.41 528.664L1522.41 528.667C1522.42 529.989 1522.41 531.312 1522.39 532.635L1523.39 532.648C1523.38 533.977 1523.35 535.306 1523.31 536.636L1522.31 536.607C1522.27 537.93 1522.22 539.254 1522.16 540.578L1523.16 540.623C1523.1 541.949 1523.03 543.275 1522.95 544.601L1521.95 544.54C1521.87 545.861 1521.78 547.183 1521.68 548.504L1522.68 548.581C1522.58 549.906 1522.46 551.231 1522.34 552.556L1521.34 552.464C1521.22 553.779 1521.09 555.095 1520.94 556.411L1521.94 556.519C1521.79 557.84 1521.64 559.161 1521.47 560.481L1520.48 560.357C1520.32 561.67 1520.14 562.983 1519.96 564.296L1520.95 564.436C1520.76 565.75 1520.56 567.063 1520.36 568.375L1519.37 568.219C1519.16 569.526 1518.94 570.833 1518.72 572.138L1519.7 572.31C1519.47 573.62 1519.23 574.928 1518.98 576.236L1518 576.048C1517.75 577.346 1517.5 578.643 1517.23 579.938L1518.21 580.141C1517.94 581.442 1517.65 582.742 1517.36 584.041L1516.39 583.822C1516.1 585.114 1515.8 586.405 1515.49 587.694L1516.46 587.928C1516.15 589.217 1515.83 590.505 1515.5 591.791L1514.53 591.542C1514.2 592.823 1513.86 594.103 1513.5 595.381L1514.47 595.646C1514.12 596.928 1513.75 598.208 1513.38 599.487L1512.42 599.207C1512.05 600.474 1511.67 601.739 1511.28 603.003L1512.23 603.299C1511.84 604.567 1511.44 605.835 1511.02 607.1L1510.07 606.789C1509.66 608.048 1509.24 609.305 1508.81 610.56L1509.75 610.886C1509.32 612.138 1508.88 613.389 1508.42 614.637L1507.48 614.297C1507.03 615.54 1506.57 616.782 1506.1 618.021L1507.04 618.376C1506.56 619.62 1506.08 620.861 1505.58 622.1L1504.66 621.73C1504.17 622.955 1503.67 624.177 1503.16 625.398L1504.08 625.783C1503.57 627.008 1503.05 628.231 1502.52 629.451L1501.6 629.052C1501.07 630.267 1500.53 631.48 1499.98 632.69L1500.89 633.104C1500.34 634.309 1499.79 635.511 1499.22 636.71L1498.31 636.282C1497.75 637.477 1497.17 638.669 1496.59 639.858L1497.48 640.3C1496.9 641.493 1496.3 642.684 1495.69 643.872L1494.8 643.416C1494.2 644.59 1493.58 645.76 1492.96 646.928L1493.85 647.398C1493.22 648.568 1492.59 649.736 1491.95 650.9L1491.07 650.417C1490.43 651.577 1489.78 652.733 1489.12 653.887L1489.99 654.384C1489.33 655.534 1488.66 656.68 1487.98 657.823L1487.12 657.313C1486.45 658.448 1485.76 659.579 1485.07 660.708L1485.92 661.231C1485.22 662.364 1484.52 663.493 1483.8 664.619L1482.96 664.082C1482.6 664.643 1482.24 665.203 1481.88 665.762C1481.52 666.321 1481.15 666.878 1480.79 667.433L1481.62 667.983C1480.89 669.098 1480.15 670.205 1479.4 671.304L1478.58 670.742C1477.83 671.837 1477.08 672.924 1476.32 674.004L1477.14 674.579C1476.37 675.666 1475.6 676.746 1474.82 677.818L1474.01 677.23C1473.23 678.306 1472.44 679.374 1471.65 680.434L1472.45 681.034C1471.65 682.098 1470.84 683.154 1470.03 684.202L1469.24 683.59C1468.43 684.635 1467.61 685.673 1466.79 686.702L1467.57 687.327C1466.74 688.369 1465.9 689.404 1465.05 690.429L1464.28 689.792C1463.43 690.814 1462.58 691.828 1461.72 692.834L1462.48 693.483C1461.62 694.492 1460.75 695.494 1459.88 696.487L1459.13 695.826C1458.25 696.824 1457.37 697.814 1456.47 698.795L1457.21 699.467C1456.32 700.452 1455.42 701.429 1454.51 702.397L1453.78 701.713C1452.87 702.677 1451.96 703.633 1451.05 704.581L1451.76 705.276C1450.84 706.235 1449.9 707.185 1448.96 708.126L1448.26 707.419C1447.32 708.357 1446.37 709.286 1445.42 710.207L1446.12 710.925C1445.17 711.849 1444.21 712.765 1443.24 713.672L1442.56 712.943C1441.59 713.852 1440.62 714.752 1439.64 715.643L1440.31 716.383C1439.33 717.279 1438.33 718.166 1437.34 719.044L1436.68 718.294C1435.68 719.169 1434.69 720.035 1433.68 720.892L1434.33 721.652C1433.32 722.517 1432.3 723.373 1431.27 724.22L1430.64 723.449C1429.61 724.293 1428.59 725.129 1427.55 725.955L1428.18 726.736C1427.14 727.566 1426.1 728.387 1425.05 729.198L1424.44 728.408C1423.39 729.22 1422.33 730.022 1421.27 730.816L1421.87 731.616C1420.81 732.414 1419.74 733.203 1418.66 733.982L1418.08 733.172C1417 733.948 1415.93 734.715 1414.84 735.473L1415.42 736.292C1414.33 737.056 1413.23 737.81 1412.13 738.555L1411.57 737.727C1410.47 738.47 1409.37 739.203 1408.26 739.928L1408.81 740.765C1407.7 741.492 1406.58 742.209 1405.46 742.917L1404.92 742.071C1403.8 742.779 1402.68 743.477 1401.55 744.166L1402.07 745.02C1400.93 745.712 1399.79 746.394 1398.64 747.067L1398.14 746.205C1397 746.875 1395.85 747.536 1394.7 748.187L1395.19 749.057C1394.03 749.713 1392.87 750.358 1391.7 750.995L1391.23 750.116C1390.06 750.751 1388.89 751.375 1387.72 751.99L1388.19 752.875C1387.01 753.492 1385.83 754.1 1384.64 754.697L1384.19 753.804C1383.01 754.401 1381.82 754.988 1380.63 755.565L1381.07 756.465C1379.87 757.045 1378.67 757.614 1377.46 758.174L1377.04 757.267C1375.84 757.825 1374.64 758.373 1373.43 758.91L1373.84 759.824C1372.62 760.365 1371.4 760.896 1370.18 761.417L1369.79 760.497C1368.57 761.017 1367.35 761.526 1366.12 762.025L1366.5 762.951C1365.27 763.452 1364.03 763.943 1362.8 764.424L1362.43 763.492C1361.2 763.972 1359.96 764.442 1358.72 764.902L1359.07 765.839C1357.82 766.301 1356.57 766.753 1355.31 767.194L1354.98 766.251C1353.73 766.69 1352.48 767.119 1351.23 767.538L1351.55 768.486C1350.28 768.908 1349.02 769.319 1347.75 769.72L1347.45 768.766C1346.19 769.165 1344.92 769.554 1343.65 769.933L1343.94 770.891C1342.67 771.271 1341.39 771.64 1340.11 772L1339.84 771.037C1338.57 771.395 1337.29 771.743 1336.01 772.08L1336.26 773.047C1334.98 773.386 1333.69 773.714 1332.4 774.032L1332.16 773.061C1330.87 773.377 1329.59 773.683 1328.3 773.979L1328.52 774.953C1327.22 775.25 1325.92 775.537 1324.62 775.812L1324.42 774.834C1323.12 775.109 1321.82 775.373 1320.53 775.626L1320.72 776.608C1319.41 776.862 1318.11 777.106 1316.8 777.339L1316.62 776.354C1315.32 776.586 1314.01 776.808 1312.71 777.019L1312.87 778.006C1311.55 778.218 1310.24 778.419 1308.92 778.609L1308.78 777.619C1307.47 777.809 1306.16 777.987 1304.85 778.155L1304.97 779.147C1303.65 779.316 1302.33 779.473 1301.01 779.62L1300.9 778.626C1299.59 778.773 1298.27 778.908 1296.95 779.033L1297.05 780.028C1295.72 780.153 1294.4 780.268 1293.07 780.371L1293 779.374C1291.68 779.477 1290.36 779.569 1289.04 779.65L1289.1 780.648C1287.77 780.729 1286.44 780.8 1285.11 780.859L1285.07 779.86C1283.75 779.919 1282.42 779.967 1281.1 780.005L1281.13 781.004C1279.8 781.042 1278.47 781.068 1277.14 781.083L1277.13 780.083C1275.81 780.098 1274.48 780.103 1273.16 780.096L1273.16 781.096C1271.83 781.089 1270.5 781.071 1269.17 781.042L1269.19 780.042C1267.87 780.013 1266.54 779.973 1265.22 779.922L1265.18 780.921C1263.86 780.87 1262.53 780.807 1261.2 780.734L1261.25 779.735C1259.93 779.662 1258.61 779.578 1257.29 779.482L1257.22 780.48C1255.9 780.384 1254.57 780.277 1253.25 780.159L1253.34 779.163C1252.02 779.045 1250.7 778.916 1249.38 778.776L1249.28 779.771C1247.96 779.63 1246.64 779.479 1245.32 779.316L1245.44 778.324C1244.13 778.162 1242.81 777.989 1241.5 777.804L1241.36 778.795C1240.05 778.609 1238.73 778.413 1237.42 778.206L1237.57 777.218C1236.27 777.012 1234.96 776.794 1233.66 776.565L1233.49 777.55C1232.18 777.321 1230.87 777.08 1229.57 776.828L1229.76 775.846C1228.46 775.596 1227.16 775.334 1225.86 775.06L1225.65 776.039C1224.36 775.765 1223.06 775.48 1221.76 775.184L1221.98 774.209C1220.7 773.914 1219.41 773.609 1218.12 773.292L1217.88 774.263C1216.59 773.944 1215.3 773.615 1214.02 773.274L1214.27 772.307C1213 771.969 1211.72 771.619 1210.45 771.259L1210.17 772.221C1208.9 771.859 1207.62 771.486 1206.35 771.102L1206.64 770.144C1205.37 769.762 1204.1 769.368 1202.84 768.963L1202.54 769.915C1201.27 769.51 1200.01 769.094 1198.75 768.667L1199.07 767.72C1197.82 767.295 1196.57 766.859 1195.33 766.411L1194.99 767.353C1193.74 766.904 1192.49 766.443 1191.24 765.971L1191.6 765.036C1190.36 764.569 1189.13 764.091 1187.9 763.601L1187.53 764.53C1186.3 764.039 1185.07 763.538 1183.84 763.025L1184.23 762.102C1183.01 761.591 1181.79 761.07 1180.57 760.537L1180.17 761.453C1178.95 760.92 1177.74 760.377 1176.54 759.823L1176.95 758.914C1175.75 758.363 1174.55 757.801 1173.36 757.229L1172.93 758.13C1171.73 757.555 1170.53 756.969 1169.34 756.371L1169.79 755.477C1168.61 754.886 1167.43 754.284 1166.26 753.671L1165.8 754.558C1164.62 753.944 1163.45 753.319 1162.28 752.684L1162.76 751.805C1161.6 751.172 1160.44 750.529 1159.28 749.874L1158.79 750.744C1157.63 750.091 1156.48 749.427 1155.34 748.751L1155.84 747.89C1154.71 747.22 1153.58 746.54 1152.45 745.849L1151.92 746.702Z" stroke="url(#paint14_linear_895_1257)" stroke-width="2" stroke-dasharray="4 4"/>
</g>
<g style="mix-blend-mode:color-dodge" opacity="0.3">
<path d="M171.649 1060.25C170.512 1059.56 169.379 1058.85 168.25 1058.13L168.787 1057.29C168.224 1056.93 167.663 1056.57 167.103 1056.21C166.543 1055.85 165.984 1055.48 165.428 1055.11L164.878 1055.95C163.761 1055.21 162.652 1054.47 161.551 1053.72L162.115 1052.89C161.019 1052.14 159.931 1051.39 158.851 1050.62L158.273 1051.44C157.185 1050.67 156.105 1049.89 155.033 1049.11L155.624 1048.3C154.549 1047.52 153.483 1046.72 152.424 1045.92L151.82 1046.71C150.758 1045.91 149.703 1045.1 148.658 1044.28L149.275 1043.49C148.232 1042.67 147.197 1041.84 146.17 1041.01L145.54 1041.79C144.501 1040.94 143.471 1040.09 142.45 1039.23L143.093 1038.47C142.076 1037.61 141.068 1036.75 140.068 1035.88L139.412 1036.64C138.407 1035.77 137.411 1034.89 136.424 1034L137.092 1033.25C136.102 1032.36 135.12 1031.47 134.147 1030.56L133.467 1031.29C132.49 1030.39 131.521 1029.47 130.562 1028.55L131.255 1027.83C130.3 1026.91 129.353 1025.98 128.416 1025.05L127.71 1025.76C126.762 1024.82 125.823 1023.87 124.893 1022.91L125.61 1022.22C124.684 1021.26 123.767 1020.3 122.859 1019.34L122.131 1020.02C121.219 1019.05 120.316 1018.08 119.422 1017.09L120.162 1016.42C119.267 1015.44 118.381 1014.45 117.504 1013.45L116.753 1014.11C115.873 1013.11 115.001 1012.1 114.139 1011.08L114.901 1010.44C114.043 1009.43 113.193 1008.41 112.353 1007.39L111.58 1008.02C110.733 1006.99 109.895 1005.95 109.066 1004.91L109.849 1004.28C109.024 1003.24 108.208 1002.2 107.401 1001.15L106.607 1001.75C105.797 1000.7 104.996 999.634 104.205 998.565L105.008 997.97C104.217 996.902 103.436 995.828 102.664 994.748L101.851 995.33C101.075 994.245 100.309 993.154 99.5527 992.058L100.376 991.49C99.6225 990.399 98.8788 989.301 98.1446 988.198L97.3122 988.752C96.5729 987.642 95.8432 986.526 95.1232 985.404L95.9647 984.864C95.2474 983.746 94.5398 982.624 93.8418 981.496L92.9914 982.022C92.2905 980.889 91.5993 979.751 90.9178 978.608L91.7768 978.096C91.0967 976.955 90.4264 975.809 89.7657 974.658L88.8984 975.155C88.2349 973.999 87.5812 972.838 86.9372 971.672L87.8126 971.188C87.1714 970.027 86.5399 968.86 85.9182 967.689L85.0349 968.158C84.4097 966.981 83.7944 965.798 83.189 964.611L84.0799 964.156C83.4768 962.974 82.8837 961.787 82.3004 960.595L81.4022 961.035C80.8165 959.838 80.2407 958.637 79.6749 957.431L80.5802 957.006C80.0162 955.804 79.4621 954.598 78.918 953.388L78.0059 953.798C77.4595 952.582 76.9231 951.362 76.3967 950.138L77.3154 949.743C76.7911 948.524 76.2769 947.301 75.7727 946.074L74.8477 946.454C74.3412 945.221 73.8448 943.984 73.3584 942.744L74.2895 942.379C73.8051 941.143 73.3307 939.904 72.8665 938.66L71.9297 939.01C71.4635 937.762 71.0075 936.51 70.5616 935.254L71.504 934.92C71.0599 933.669 70.626 932.415 70.2021 931.157L69.2545 931.477C68.829 930.214 68.4136 928.948 68.0084 927.678L68.9611 927.374C68.5575 926.11 68.1642 924.842 67.781 923.571L66.8235 923.86C66.439 922.585 66.0646 921.306 65.7006 920.024L66.6625 919.751C66.2999 918.475 65.9475 917.195 65.6053 915.913L64.6391 916.17C64.2955 914.883 63.9622 913.592 63.6392 912.299L64.6094 912.056C64.288 910.769 63.9768 909.48 63.6759 908.187L62.702 908.414C62.3998 907.116 62.108 905.816 61.8266 904.514L62.804 904.302C62.5236 903.005 62.2536 901.705 61.9938 900.402L61.0131 900.598C60.7527 899.292 60.5026 897.984 60.2629 896.673L61.2465 896.493C61.0077 895.188 60.7793 893.881 60.5611 892.571L59.5747 892.736C59.3557 891.421 59.1471 890.104 58.9489 888.785L59.9378 888.636C59.7407 887.325 59.5539 886.012 59.3775 884.697L58.3864 884.83C58.2093 883.51 58.0426 882.187 57.8864 880.864L58.8794 880.746C58.7238 879.428 58.5785 878.108 58.4437 876.786L57.4488 876.887C57.3137 875.563 57.1891 874.238 57.0748 872.91L58.0711 872.825C57.9572 871.503 57.8538 870.18 57.7608 868.855L56.7633 868.925C56.6699 867.595 56.587 866.264 56.5145 864.932L57.5131 864.878C57.4411 863.554 57.3795 862.23 57.3283 860.904L56.3291 860.942C56.2777 859.611 56.2368 858.28 56.2064 856.947L57.2061 856.924C57.1758 855.597 57.1559 854.268 57.1465 852.939L56.1465 852.946C56.1371 851.616 56.1381 850.284 56.1496 848.952L57.1495 848.961C57.161 847.635 57.1828 846.308 57.2151 844.98L56.2154 844.956C56.2479 843.623 56.2908 842.29 56.3443 840.956L57.3435 840.996C57.3965 839.672 57.46 838.348 57.5339 837.023L56.5355 836.967C56.6097 835.638 56.6943 834.308 56.7894 832.978L57.7869 833.05C57.8817 831.725 57.9869 830.4 58.1026 829.076L57.1064 828.989C57.2221 827.664 57.3484 826.338 57.485 825.014L58.4797 825.116C58.6158 823.797 58.7623 822.478 58.9192 821.159L57.9262 821.041C58.0838 819.717 58.2518 818.394 58.4304 817.071L59.4214 817.204C59.5986 815.891 59.7861 814.579 59.9841 813.267L58.9953 813.118C59.1939 811.801 59.403 810.486 59.6225 809.171L60.6088 809.336C60.8275 808.026 61.0566 806.717 61.2961 805.408L60.3124 805.228C60.552 803.92 60.8019 802.612 61.0622 801.306L62.043 801.501C62.302 800.201 62.5714 798.902 62.8512 797.604L61.8736 797.393C62.1545 796.09 62.4459 794.788 62.7477 793.487L63.7218 793.713C64.0212 792.422 64.331 791.133 64.6511 789.844L63.6806 789.603C64.0013 788.312 64.3325 787.022 64.674 785.734L65.6406 785.99C65.9808 784.707 66.3314 783.425 66.6923 782.144L65.7298 781.873C66.0907 780.593 66.4621 779.314 66.8437 778.036L67.8018 778.322C68.1809 777.053 68.5703 775.786 68.9701 774.52L68.0164 774.219C68.4177 772.948 68.8293 771.679 69.2512 770.412L70.2 770.728C70.6188 769.47 71.0479 768.213 71.4872 766.959L70.5435 766.629C70.9829 765.374 71.4325 764.122 71.8923 762.872L72.8309 763.217C73.289 761.971 73.7572 760.728 74.2357 759.487L73.3027 759.127C73.7818 757.884 74.2711 756.644 74.7706 755.405L75.698 755.779C76.1929 754.553 76.698 753.328 77.2131 752.105L76.2917 751.717C76.8088 750.49 77.3361 749.265 77.8736 748.043L78.789 748.445C79.3236 747.23 79.8683 746.017 80.4231 744.806L79.5141 744.389C80.067 743.183 80.6299 741.979 81.2028 740.778L82.1054 741.208C82.6762 740.012 83.2569 738.818 83.8478 737.626L82.9519 737.182C83.5449 735.986 84.1481 734.793 84.7613 733.603L85.6502 734.061C86.2552 732.887 86.8701 731.716 87.4948 730.547L86.613 730.076C87.24 728.903 87.8769 727.733 88.5238 726.566L89.3984 727.051C90.0428 725.889 90.6971 724.73 91.3613 723.573L90.4942 723.075C91.1555 721.924 91.8266 720.776 92.5075 719.631L93.367 720.143C94.0436 719.005 94.7299 717.871 95.4259 716.74L94.5743 716.216C95.273 715.08 95.9814 713.948 96.6997 712.819L97.5433 713.356C97.9011 712.794 98.2613 712.233 98.624 711.672C98.9866 711.112 99.3511 710.553 99.7172 709.997L98.8818 709.447C99.617 708.329 100.359 707.219 101.109 706.117L101.936 706.679C102.682 705.58 103.436 704.49 104.196 703.406L103.378 702.832C104.143 701.742 104.915 700.659 105.694 699.584L106.504 700.171C107.286 699.091 108.076 698.019 108.872 696.955L108.071 696.356C108.871 695.288 109.677 694.228 110.49 693.175L111.281 693.786C112.091 692.738 112.908 691.697 113.731 690.664L112.949 690.041C113.783 688.994 114.624 687.955 115.472 686.924L116.244 687.559C117.089 686.532 117.94 685.513 118.798 684.502L118.035 683.855C118.896 682.84 119.764 681.833 120.638 680.834L121.39 681.493C122.267 680.491 123.151 679.497 124.041 678.511L123.298 677.841C124.193 676.85 125.094 675.867 126.002 674.892L126.733 675.574C127.637 674.603 128.548 673.64 129.464 672.686L128.743 671.993C129.668 671.03 130.599 670.076 131.536 669.13L132.246 669.833C133.183 668.888 134.125 667.951 135.074 667.023L134.374 666.309C135.326 665.377 136.284 664.453 137.248 663.539L137.937 664.264C138.901 663.349 139.871 662.443 140.847 661.546L140.17 660.81C141.153 659.906 142.142 659.01 143.137 658.123L143.802 658.87C144.793 657.987 145.79 657.112 146.792 656.246L146.138 655.489C147.147 654.618 148.162 653.755 149.182 652.901L149.824 653.668C150.844 652.814 151.87 651.969 152.901 651.133L152.271 650.356C153.307 649.517 154.347 648.686 155.394 647.864L156.011 648.651C157.055 647.831 158.105 647.02 159.159 646.218L158.554 645.422C159.617 644.614 160.686 643.814 161.759 643.024L162.352 643.829C163.421 643.042 164.496 642.264 165.576 641.495L164.996 640.681C166.081 639.908 167.171 639.144 168.266 638.39L168.834 639.213C169.929 638.458 171.029 637.713 172.135 636.977L171.58 636.145C172.69 635.405 173.804 634.676 174.923 633.955L175.465 634.796C176.58 634.078 177.701 633.369 178.826 632.669L178.298 631.82C179.432 631.115 180.57 630.419 181.713 629.733L182.228 630.591C183.366 629.907 184.51 629.233 185.657 628.568L185.156 627.703C186.309 627.036 187.466 626.377 188.627 625.729L189.115 626.602C190.275 625.954 191.441 625.315 192.61 624.686L192.136 623.805C193.31 623.173 194.489 622.551 195.671 621.939L196.131 622.827C197.309 622.217 198.491 621.616 199.677 621.025L199.231 620.13C200.426 619.535 201.624 618.949 202.827 618.373L203.259 619.275C204.456 618.702 205.658 618.138 206.863 617.584L206.446 616.676C207.656 616.119 208.87 615.573 210.087 615.036L210.491 615.952C211.707 615.415 212.927 614.889 214.15 614.373L213.761 613.452C214.99 612.933 216.221 612.425 217.456 611.926L217.831 612.854C219.061 612.357 220.295 611.871 221.531 611.394L221.172 610.461C222.417 609.981 223.665 609.511 224.916 609.051L225.261 609.99C226.507 609.532 227.757 609.084 229.009 608.647L228.679 607.703C229.937 607.263 231.197 606.834 232.46 606.414L232.775 607.363C234.036 606.945 235.3 606.536 236.567 606.138L236.267 605.184C237.538 604.784 238.812 604.394 240.089 604.015L240.374 604.974C241.646 604.596 242.92 604.228 244.197 603.87L243.928 602.907C245.212 602.548 246.499 602.198 247.788 601.86L248.042 602.827C249.326 602.489 250.612 602.162 251.901 601.845L251.662 600.874C252.955 600.555 254.251 600.247 255.549 599.95L255.773 600.925C257.067 600.628 258.364 600.342 259.662 600.066L259.454 599.087C260.758 598.81 262.064 598.544 263.371 598.288L263.563 599.269C264.865 599.014 266.169 598.769 267.475 598.535L267.299 597.551C268.611 597.316 269.925 597.091 271.24 596.877L271.401 597.864C272.711 597.65 274.022 597.447 275.335 597.255L275.191 596.266C276.509 596.073 277.829 595.89 279.15 595.718L279.279 596.71C280.595 596.539 281.913 596.378 283.231 596.228L283.118 595.234C284.442 595.084 285.767 594.944 287.094 594.815L287.191 595.81C288.511 595.681 289.833 595.563 291.156 595.456L291.075 594.459C292.403 594.351 293.732 594.254 295.062 594.168L295.127 595.166C296.451 595.08 297.776 595.005 299.102 594.94L299.053 593.942C300.384 593.877 301.716 593.823 303.048 593.78L303.08 594.779C304.406 594.736 305.732 594.704 307.059 594.683L307.043 593.683C308.375 593.662 309.708 593.651 311.041 593.651L311.04 594.652C312.368 594.652 313.695 594.663 315.022 594.685L315.039 593.685C316.371 593.707 317.702 593.74 319.034 593.784L319.001 594.784C320.327 594.827 321.653 594.882 322.979 594.948L323.028 593.949C324.359 594.015 325.69 594.091 327.02 594.179L326.955 595.177C328.278 595.264 329.6 595.362 330.923 595.471L331.005 594.475C332.332 594.584 333.66 594.705 334.986 594.836L334.888 595.831C336.208 595.962 337.528 596.104 338.848 596.257L338.963 595.264C340.285 595.417 341.606 595.581 342.927 595.756L342.795 596.747C344.11 596.922 345.425 597.107 346.738 597.304L346.886 596.315C348.204 596.512 349.521 596.72 350.837 596.94L350.673 597.926C351.979 598.144 353.285 598.373 354.59 598.612L354.771 597.629C356.081 597.87 357.389 598.121 358.696 598.384L358.499 599.365C359.801 599.626 361.101 599.899 362.399 600.183L362.613 599.206C363.912 599.49 365.21 599.785 366.506 600.091L366.276 601.064C367.567 601.369 368.856 601.685 370.143 602.011L370.389 601.042C371.681 601.37 372.972 601.709 374.26 602.059L373.998 603.024C375.275 603.372 376.551 603.73 377.824 604.099L378.103 603.138C379.381 603.509 380.658 603.891 381.933 604.283L381.638 605.239C382.908 605.63 384.174 606.032 385.439 606.445L385.75 605.495C387.013 605.907 388.273 606.331 389.531 606.765L389.205 607.71C390.458 608.143 391.709 608.587 392.957 609.041L393.299 608.102C394.552 608.558 395.803 609.026 397.051 609.504L396.693 610.438C397.928 610.911 399.16 611.396 400.39 611.891L400.763 610.963C401.998 611.46 403.229 611.968 404.458 612.487L404.069 613.408C405.293 613.925 406.514 614.453 407.731 614.992L408.136 614.077C409.35 614.614 410.562 615.162 411.77 615.721L411.35 616.629C412.552 617.184 413.752 617.751 414.948 618.329L415.382 617.428C416.584 618.008 417.781 618.599 418.976 619.201L418.526 620.094C419.707 620.689 420.885 621.294 422.059 621.911L422.524 621.025C423.701 621.643 424.875 622.271 426.045 622.911L425.566 623.788C426.731 624.425 427.893 625.072 429.052 625.73L429.546 624.86C430.701 625.516 431.852 626.183 433 626.861L432.492 627.722C433.631 628.394 434.767 629.077 435.899 629.77L436.421 628.917C437.558 629.614 438.691 630.32 439.82 631.038L439.284 631.882C439.846 632.239 440.407 632.599 440.967 632.961C441.528 633.324 442.086 633.688 442.642 634.055L443.192 633.22C444.309 633.956 445.418 634.699 446.519 635.451L445.955 636.277C447.051 637.025 448.139 637.781 449.219 638.545L449.797 637.729C450.885 638.498 451.965 639.276 453.037 640.061L452.446 640.867C453.521 641.655 454.588 642.449 455.646 643.252L456.25 642.455C457.313 643.26 458.367 644.074 459.413 644.894L458.795 645.681C459.839 646.5 460.874 647.326 461.9 648.159L462.531 647.383C463.569 648.226 464.599 649.077 465.62 649.935L464.977 650.7C465.994 651.555 467.002 652.417 468.002 653.285L468.658 652.531C469.663 653.404 470.659 654.284 471.646 655.172L470.978 655.916C471.968 656.806 472.95 657.703 473.923 658.608L474.604 657.875C475.581 658.783 476.549 659.699 477.508 660.621L476.815 661.342C477.77 662.261 478.717 663.186 479.655 664.118L480.36 663.409C481.308 664.352 482.247 665.301 483.177 666.258L482.46 666.955C483.386 667.907 484.303 668.866 485.211 669.832L485.94 669.147C486.851 670.116 487.754 671.093 488.648 672.076L487.908 672.749C488.803 673.733 489.689 674.724 490.566 675.721L491.317 675.061C492.198 676.063 493.069 677.071 493.931 678.086L493.169 678.733C494.028 679.744 494.877 680.761 495.717 681.784L496.49 681.149C497.337 682.181 498.175 683.219 499.004 684.263L498.221 684.885C499.046 685.925 499.863 686.972 500.669 688.024L501.463 687.416C502.273 688.473 503.074 689.536 503.865 690.604L503.062 691.199C503.853 692.268 504.634 693.342 505.406 694.421L506.22 693.84C506.995 694.925 507.761 696.015 508.517 697.112L507.694 697.68C508.448 698.771 509.191 699.869 509.926 700.972L510.758 700.417C511.497 701.528 512.227 702.644 512.947 703.766L512.105 704.306C512.823 705.423 513.53 706.546 514.228 707.674L515.079 707.148C515.78 708.281 516.471 709.419 517.152 710.562L516.293 711.074C516.973 712.215 517.644 713.361 518.304 714.512L519.172 714.014C519.835 715.171 520.489 716.332 521.133 717.498L520.258 717.981C520.899 719.143 521.53 720.309 522.152 721.48L523.035 721.012C523.66 722.189 524.276 723.372 524.881 724.559L523.99 725.013C524.593 726.196 525.186 727.383 525.77 728.575L526.668 728.135C527.254 729.332 527.829 730.533 528.395 731.739L527.49 732.163C528.054 733.365 528.608 734.571 529.152 735.782L530.064 735.372C530.611 736.588 531.147 737.807 531.673 739.031L530.755 739.427C531.279 740.646 531.793 741.869 532.297 743.096L533.222 742.716C533.729 743.949 534.225 745.185 534.712 746.426L533.781 746.791C534.265 748.027 534.739 749.266 535.204 750.509L536.14 750.159C536.607 751.408 537.063 752.66 537.509 753.915L536.566 754.25C537.01 755.501 537.444 756.755 537.868 758.012L538.816 757.693C539.241 758.956 539.657 760.222 540.062 761.491L539.109 761.795C539.513 763.06 539.906 764.327 540.289 765.598L541.247 765.31C541.631 766.585 542.005 767.864 542.37 769.145L541.408 769.419C541.77 770.695 542.123 771.975 542.465 773.257L543.431 772.999C543.775 774.287 544.108 775.578 544.431 776.871L543.461 777.113C543.782 778.4 544.093 779.69 544.394 780.982L545.368 780.756C545.67 782.053 545.962 783.353 546.244 784.656L545.266 784.867C545.546 786.165 545.817 787.465 546.076 788.767L547.057 788.572C547.317 789.878 547.568 791.186 547.807 792.496L546.824 792.676C547.062 793.982 547.291 795.289 547.509 796.598L548.495 796.434C548.714 797.749 548.923 799.066 549.121 800.385L548.132 800.533C548.329 801.845 548.516 803.158 548.693 804.473L549.684 804.34C549.861 805.66 550.028 806.982 550.184 808.306L549.191 808.423C549.346 809.742 549.492 811.062 549.626 812.384L550.621 812.282C550.756 813.606 550.881 814.932 550.995 816.259L549.999 816.345C550.113 817.667 550.216 818.99 550.309 820.315L551.307 820.245C551.4 821.574 551.483 822.905 551.556 824.238L550.557 824.292C550.629 825.615 550.691 826.94 550.742 828.266L551.741 828.227C551.792 829.558 551.833 830.89 551.864 832.223L550.864 832.246C550.894 833.573 550.914 834.902 550.924 836.231L551.924 836.224C551.933 837.554 551.932 838.885 551.921 840.217L550.921 840.209C550.909 841.535 550.887 842.862 550.855 844.19L551.855 844.214C551.822 845.547 551.779 846.88 551.726 848.214L550.727 848.174C550.674 849.498 550.61 850.822 550.536 852.147L551.535 852.203C551.46 853.532 551.376 854.862 551.281 856.191L550.283 856.12C550.188 857.445 550.083 858.769 549.968 860.094L550.964 860.181C550.848 861.506 550.722 862.831 550.585 864.156L549.59 864.054C549.454 865.373 549.308 866.692 549.151 868.01L550.144 868.128C549.986 869.452 549.818 870.776 549.64 872.099L548.649 871.965C548.472 873.278 548.284 874.591 548.086 875.903L549.075 876.052C548.876 877.368 548.667 878.684 548.448 879.999L547.461 879.834C547.243 881.144 547.014 882.453 546.774 883.762L547.758 883.942C547.518 885.25 547.268 886.557 547.008 887.864L546.027 887.669C545.768 888.969 545.499 890.268 545.219 891.566L546.196 891.776C545.916 893.08 545.624 894.382 545.322 895.683L544.348 895.457C544.049 896.747 543.739 898.037 543.419 899.325L544.39 899.566C544.069 900.857 543.738 902.147 543.396 903.436L542.429 903.179C542.089 904.463 541.739 905.745 541.378 907.025L542.34 907.297C541.979 908.577 541.608 909.856 541.226 911.134L540.268 910.847C539.889 912.117 539.5 913.384 539.1 914.65L540.054 914.951C539.652 916.222 539.241 917.491 538.819 918.758L537.87 918.442C537.451 919.7 537.022 920.956 536.583 922.21L537.527 922.541C537.087 923.795 536.638 925.048 536.178 926.298L535.239 925.953C534.781 927.198 534.313 928.442 533.834 929.683L534.767 930.043C534.288 931.286 533.799 932.526 533.3 933.764L532.372 933.39C531.877 934.617 531.372 935.842 530.857 937.064L531.778 937.453C531.261 938.68 530.734 939.905 530.197 941.127L529.281 940.724C528.747 941.94 528.202 943.153 527.647 944.364L528.556 944.78C528.003 945.987 527.44 947.191 526.867 948.392L525.965 947.962C525.394 949.158 524.813 950.352 524.222 951.543L525.118 951.988C524.525 953.183 523.922 954.376 523.309 955.567L522.42 955.109C521.815 956.283 521.2 957.454 520.575 958.623L521.457 959.094C520.83 960.267 520.193 961.437 519.546 962.603L518.672 962.119C518.027 963.281 517.373 964.44 516.709 965.596L517.576 966.095C516.915 967.246 516.244 968.394 515.563 969.538L514.703 969.027C514.027 970.165 513.34 971.299 512.644 972.43L513.496 972.954C512.797 974.09 512.089 975.222 511.37 976.35L510.527 975.813C510.169 976.376 509.809 976.937 509.446 977.497C509.083 978.058 508.719 978.616 508.353 979.173L509.188 979.723C508.453 980.84 507.711 981.95 506.961 983.053L506.134 982.491C505.388 983.589 504.634 984.68 503.874 985.763L504.692 986.338C503.927 987.428 503.155 988.511 502.376 989.586L501.566 988.999C500.784 990.078 499.994 991.15 499.198 992.214L499.999 992.814C499.199 993.882 498.393 994.942 497.581 995.995L496.789 995.383C495.979 996.432 495.163 997.473 494.339 998.506L495.121 999.129C494.287 1000.18 493.446 1001.22 492.598 1002.25L491.826 1001.61C490.981 1002.64 490.13 1003.66 489.272 1004.67L490.035 1005.31C489.174 1006.33 488.306 1007.34 487.433 1008.34L486.68 1007.68C485.803 1008.68 484.92 1009.67 484.03 1010.66L484.772 1011.33C483.877 1012.32 482.976 1013.3 482.069 1014.28L481.337 1013.6C480.433 1014.57 479.523 1015.53 478.606 1016.48L479.327 1017.18C478.403 1018.14 477.471 1019.09 476.534 1020.04L475.824 1019.34C474.887 1020.28 473.945 1021.22 472.997 1022.15L473.696 1022.86C472.744 1023.79 471.786 1024.72 470.822 1025.63L470.133 1024.91C469.169 1025.82 468.199 1026.73 467.223 1027.62L467.9 1028.36C466.917 1029.26 465.928 1030.16 464.934 1031.05L464.268 1030.3C463.277 1031.18 462.281 1032.06 461.278 1032.92L461.932 1033.68C460.923 1034.55 459.908 1035.41 458.888 1036.27L458.246 1035.5C457.226 1036.36 456.2 1037.2 455.169 1038.04L455.799 1038.81C454.764 1039.65 453.723 1040.48 452.677 1041.31L452.059 1040.52C451.015 1041.34 449.965 1042.15 448.911 1042.95L449.516 1043.75C448.453 1044.56 447.385 1045.36 446.311 1046.15L445.718 1045.34C444.649 1046.13 443.574 1046.91 442.495 1047.67L443.075 1048.49C441.989 1049.26 440.899 1050.03 439.804 1050.78L439.236 1049.96C438.141 1050.71 437.041 1051.46 435.936 1052.19L436.49 1053.03C435.38 1053.76 434.266 1054.49 433.147 1055.21L432.605 1054.37C431.49 1055.09 430.369 1055.8 429.244 1056.5L429.772 1057.35C428.638 1058.05 427.5 1058.75 426.357 1059.44L425.842 1058.58C424.704 1059.26 423.561 1059.94 422.413 1060.6L422.914 1061.47C421.762 1062.13 420.605 1062.79 419.443 1063.44L418.956 1062.57C417.795 1063.22 416.629 1063.85 415.46 1064.48L415.934 1065.36C414.76 1066 413.582 1066.62 412.399 1067.23L411.939 1066.34C410.761 1066.95 409.579 1067.55 408.393 1068.14L408.839 1069.04C407.644 1069.64 406.446 1070.22 405.243 1070.8L404.812 1069.89C403.614 1070.47 402.412 1071.03 401.207 1071.59L401.625 1072.49C400.414 1073.05 399.2 1073.6 397.983 1074.13L397.58 1073.22C396.363 1073.75 395.143 1074.28 393.92 1074.8L394.309 1075.72C393.081 1076.24 391.849 1076.74 390.614 1077.24L390.24 1076.32C389.009 1076.81 387.776 1077.3 386.539 1077.78L386.898 1078.71C385.653 1079.19 384.405 1079.66 383.154 1080.12L382.809 1079.18C381.563 1079.64 380.313 1080.09 379.061 1080.52L379.391 1081.47C378.134 1081.91 376.873 1082.34 375.61 1082.76L375.295 1081.81C374.034 1082.23 372.77 1082.63 371.504 1083.03L371.804 1083.99C370.532 1084.39 369.258 1084.78 367.981 1085.15L367.696 1084.2C366.424 1084.57 365.15 1084.94 363.873 1085.3L364.142 1086.26C362.858 1086.62 361.571 1086.97 360.282 1087.31L360.028 1086.34C358.744 1086.68 357.458 1087.01 356.169 1087.33L356.408 1088.3C355.115 1088.61 353.819 1088.92 352.521 1089.22L352.298 1088.25C351.003 1088.54 349.706 1088.83 348.408 1089.1L348.616 1090.08C347.312 1090.36 346.007 1090.63 344.699 1090.88L344.507 1089.9C343.205 1090.16 341.901 1090.4 340.595 1090.63L340.772 1091.62C339.459 1091.85 338.146 1092.08 336.83 1092.29L336.669 1091.31C335.359 1091.52 334.048 1091.72 332.735 1091.91L332.88 1092.9C331.561 1093.1 330.242 1093.28 328.921 1093.45L328.792 1092.46C327.475 1092.63 326.158 1092.79 324.839 1092.94L324.952 1093.94C323.628 1094.09 322.303 1094.23 320.976 1094.35L320.88 1093.36C319.559 1093.49 318.237 1093.61 316.914 1093.71L316.995 1094.71C315.667 1094.82 314.338 1094.92 313.008 1095L312.944 1094C311.619 1094.09 310.294 1094.16 308.969 1094.23L309.017 1095.23C307.686 1095.29 306.355 1095.35 305.023 1095.39L304.99 1094.39C303.664 1094.43 302.338 1094.47 301.011 1094.49L301.027 1095.49C299.695 1095.51 298.362 1095.52 297.029 1095.52L297.03 1094.52C295.703 1094.52 294.375 1094.51 293.048 1094.48L293.031 1095.48C291.7 1095.46 290.368 1095.43 289.036 1095.39L289.069 1094.39C287.743 1094.34 286.417 1094.29 285.091 1094.22L285.042 1095.22C283.711 1095.16 282.38 1095.08 281.05 1094.99L281.116 1093.99C279.792 1093.91 278.47 1093.81 277.148 1093.7L277.065 1094.7C275.738 1094.59 274.41 1094.47 273.084 1094.33L273.183 1093.34C271.862 1093.21 270.542 1093.07 269.222 1092.91L269.107 1093.91C267.785 1093.75 266.464 1093.59 265.143 1093.41L265.275 1092.42C263.96 1092.25 262.646 1092.06 261.332 1091.87L261.185 1092.85C259.866 1092.66 258.549 1092.45 257.233 1092.23L257.398 1091.24C256.091 1091.03 254.785 1090.8 253.48 1090.56L253.3 1091.54C251.99 1091.3 250.681 1091.05 249.374 1090.79L249.571 1089.81C248.269 1089.54 246.969 1089.27 245.671 1088.99L245.458 1089.96C244.158 1089.68 242.861 1089.38 241.564 1089.08L241.794 1088.11C240.504 1087.8 239.215 1087.49 237.927 1087.16L237.681 1088.13C236.389 1087.8 235.099 1087.46 233.81 1087.11L234.072 1086.15C232.795 1085.8 231.519 1085.44 230.246 1085.07L229.968 1086.03C228.689 1085.66 227.412 1085.28 226.137 1084.89L226.432 1083.93C225.163 1083.54 223.896 1083.14 222.631 1082.72L222.32 1083.67C221.058 1083.26 219.797 1082.84 218.539 1082.4L218.865 1081.46C217.612 1081.03 216.361 1080.58 215.113 1080.13L214.771 1081.07C213.518 1080.61 212.267 1080.14 211.019 1079.67L211.377 1078.73C210.142 1078.26 208.91 1077.77 207.68 1077.28L207.307 1078.21C206.072 1077.71 204.841 1077.2 203.612 1076.68L204.001 1075.76C202.777 1075.24 201.557 1074.72 200.339 1074.18L199.934 1075.09C198.72 1074.56 197.509 1074.01 196.3 1073.45L196.72 1072.54C195.518 1071.99 194.319 1071.42 193.123 1070.84L192.688 1071.74C191.487 1071.16 190.289 1070.57 189.094 1069.97L189.544 1069.08C188.363 1068.48 187.185 1067.88 186.011 1067.26L185.546 1068.14C184.369 1067.53 183.195 1066.9 182.025 1066.26L182.504 1065.38C181.339 1064.74 180.177 1064.1 179.018 1063.44L178.525 1064.31C177.369 1063.65 176.218 1062.99 175.07 1062.31L175.578 1061.45C174.439 1060.78 173.303 1060.09 172.171 1059.4L171.649 1060.25Z" stroke="url(#paint15_linear_895_1257)" stroke-width="2" stroke-dasharray="4 4"/>
</g>
</g>
<defs>
<filter id="filter0_d_895_1257" x="302.011" y="589.64" width="493.847" height="482.26" filterUnits="userSpaceOnUse" color-interpolation-filters="sRGB">
<feFlood flood-opacity="0" result="BackgroundImageFix"/>
<feColorMatrix in="SourceAlpha" type="matrix" values="0 0 0 0 0 0 0 0 0 0 0 0 0 0 0 0 0 0 127 0" result="hardAlpha"/>
<feOffset dx="-2" dy="2"/>
<feGaussianBlur stdDeviation="10"/>
<feComposite in2="hardAlpha" operator="out"/>
<feColorMatrix type="matrix" values="0 0 0 0 0 0 0 0 0 0 0 0 0 0 0 0 0 0 0.25 0"/>
<feBlend mode="normal" in2="BackgroundImageFix" result="effect1_dropShadow_895_1257"/>
<feBlend mode="normal" in="SourceGraphic" in2="effect1_dropShadow_895_1257" result="shape"/>
</filter>
<filter id="filter1_d_895_1257" x="1085.46" y="443.581" width="410.066" height="410.066" filterUnits="userSpaceOnUse" color-interpolation-filters="sRGB">
<feFlood flood-opacity="0" result="BackgroundImageFix"/>
<feColorMatrix in="SourceAlpha" type="matrix" values="0 0 0 0 0 0 0 0 0 0 0 0 0 0 0 0 0 0 127 0" result="hardAlpha"/>
<feOffset dx="2" dy="2"/>
<feGaussianBlur stdDeviation="15"/>
<feComposite in2="hardAlpha" operator="out"/>
<feColorMatrix type="matrix" values="0 0 0 0 0 0 0 0 0 0 0 0 0 0 0 0 0 0 0.25 0"/>
<feBlend mode="normal" in2="BackgroundImageFix" result="effect1_dropShadow_895_1257"/>
<feBlend mode="normal" in="SourceGraphic" in2="effect1_dropShadow_895_1257" result="shape"/>
</filter>
<linearGradient id="paint0_linear_895_1257" x1="1256.11" y1="540.865" x2="1007.98" y2="437.359" gradientUnits="userSpaceOnUse">
<stop offset="0.0702472" stop-color="#DA880C"/>
<stop offset="1" stop-color="#FFD596"/>
</linearGradient>
<linearGradient id="paint1_linear_895_1257" x1="200" y1="93.3334" x2="1593.75" y2="700.287" gradientUnits="userSpaceOnUse">
<stop offset="0.0572917" stop-color="#FFD596"/>
<stop offset="1" stop-color="#DA880C"/>
</linearGradient>
<linearGradient id="paint2_linear_895_1257" x1="200" y1="93.3334" x2="1593.75" y2="700.287" gradientUnits="userSpaceOnUse">
<stop offset="0.0572917" stop-color="#FFD596"/>
<stop offset="1" stop-color="#DA880C"/>
</linearGradient>
<linearGradient id="paint3_linear_895_1257" x1="1520.53" y1="519.846" x2="1091.5" y2="-249.492" gradientUnits="userSpaceOnUse">
<stop stop-color="#FFD596" stop-opacity="0.68"/>
<stop offset="1" stop-color="#DA880C" stop-opacity="0.68"/>
</linearGradient>
<linearGradient id="paint4_linear_895_1257" x1="445.459" y1="771.333" x2="903.052" y2="1319.73" gradientUnits="userSpaceOnUse">
<stop stop-color="#FFD596"/>
<stop offset="1" stop-color="#EEAC49"/>
</linearGradient>
<linearGradient id="paint5_linear_895_1257" x1="1215.31" y1="1007.61" x2="1453.61" y2="184.639" gradientUnits="userSpaceOnUse">
<stop stop-color="#FFD596"/>
<stop offset="1" stop-color="#DA880C"/>
</linearGradient>
<linearGradient id="paint6_linear_895_1257" x1="623.877" y1="1083.54" x2="285.475" y2="50.1634" gradientUnits="userSpaceOnUse">
<stop offset="0.00143425" stop-color="#DA880C"/>
<stop offset="1" stop-color="#FFD596"/>
</linearGradient>
<linearGradient id="paint7_linear_895_1257" x1="907.116" y1="443.233" x2="687.006" y2="43.8158" gradientUnits="userSpaceOnUse">
<stop offset="0.0702472" stop-color="#DA880C"/>
<stop offset="1" stop-color="#FFD596"/>
</linearGradient>
<linearGradient id="paint8_linear_895_1257" x1="1403.94" y1="-200.097" x2="841.711" y2="816.228" gradientUnits="userSpaceOnUse">
<stop offset="0.0702472" stop-color="#DA880C"/>
<stop offset="1" stop-color="#FFD596"/>
</linearGradient>
<linearGradient id="paint9_linear_895_1257" x1="198.309" y1="32.9996" x2="1592.06" y2="639.953" gradientUnits="userSpaceOnUse">
<stop offset="0.0572917" stop-color="#5D90CD"/>
<stop offset="1" stop-color="#052F61"/>
</linearGradient>
<linearGradient id="paint10_linear_895_1257" x1="1536.84" y1="478.512" x2="1107.81" y2="-290.826" gradientUnits="userSpaceOnUse">
<stop stop-color="#5D90CD" stop-opacity="0.68"/>
<stop offset="1" stop-color="#052F61" stop-opacity="0.68"/>
</linearGradient>
<linearGradient id="paint11_linear_895_1257" x1="1105.22" y1="1254.44" x2="1498.12" y2="-102.461" gradientUnits="userSpaceOnUse">
<stop stop-color="#5D90CD"/>
<stop offset="1" stop-color="#052F61"/>
</linearGradient>
<linearGradient id="paint12_linear_895_1257" x1="615.324" y1="33.0971" x2="57.3519" y2="572.146" gradientUnits="userSpaceOnUse">
<stop offset="0.00143425" stop-color="#214E84"/>
<stop offset="0.618568" stop-color="#2D5B93" stop-opacity="0.800933"/>
<stop offset="0.836788" stop-color="#3B6BA4" stop-opacity="0.562437"/>
<stop offset="0.992746" stop-color="#5D90CD" stop-opacity="0"/>
</linearGradient>
<linearGradient id="paint13_linear_895_1257" x1="1081.81" y1="99.1663" x2="724.407" y2="92.4355" gradientUnits="userSpaceOnUse">
<stop offset="0.0702472" stop-color="#052F61"/>
<stop offset="1" stop-color="#5D90CD"/>
</linearGradient>
<linearGradient id="paint14_linear_895_1257" x1="1704.5" y1="1056.13" x2="1241.75" y2="216.418" gradientUnits="userSpaceOnUse">
<stop offset="0.0702472" stop-color="#052F61"/>
<stop offset="1" stop-color="#5D90CD"/>
</linearGradient>
<linearGradient id="paint15_linear_895_1257" x1="737.252" y1="1376.98" x2="263.685" y2="517.633" gradientUnits="userSpaceOnUse">
<stop offset="0.0702472" stop-color="#052F61" stop-opacity="0.65"/>
<stop offset="1" stop-color="#5D90CD"/>
</linearGradient>
<clipPath id="clip0_895_1257">
<rect width="1440" height="787" fill="white"/>
</clipPath>
</defs>
</svg>
