<svg width="19" height="19" viewBox="0 0 19 19" fill="none" xmlns="http://www.w3.org/2000/svg">
<path d="M16.3045 7.00644V13.3238C16.3045 13.9116 16.0711 14.4752 15.6555 14.8908C15.2399 15.3064 14.6762 15.5399 14.0885 15.5399H4.33808C3.75036 15.5399 3.18671 15.3064 2.77112 14.8908C2.35554 14.4752 2.12207 13.9116 2.12207 13.3238V7.00644L8.98816 11.0467C9.05637 11.0869 9.13411 11.1081 9.2133 11.1081C9.29249 11.1081 9.37024 11.0869 9.43845 11.0467L16.3045 7.00644ZM14.0885 4.0166C14.6338 4.01652 15.16 4.21747 15.5663 4.58101C15.9727 4.94455 16.2308 5.44517 16.2912 5.98708L9.2133 10.1505L2.13537 5.98708C2.19578 5.44517 2.45387 4.94455 2.86026 4.58101C3.26665 4.21747 3.79281 4.01652 4.33808 4.0166H14.0885Z" fill="#052F61"/>
</svg>
