<svg width="1440" height="787" viewBox="0 0 1440 787" fill="none" xmlns="http://www.w3.org/2000/svg">
<g clip-path="url(#clip0_895_1247)">
<path d="M1102 552.919C1024.9 515.218 1003.16 434.86 1053.18 373.486C1103.21 312.112 1206.21 292.76 1283.31 330.461C1360.4 368.162 1382.14 448.52 1332.12 509.894C1282.1 571.269 1179.09 590.621 1102 552.919Z" stroke="url(#paint0_linear_895_1247)" stroke-width="2"/>
<rect width="1440" height="1016" fill="url(#paint1_linear_895_1247)"/>
<mask id="mask0_895_1247" style="mask-type:alpha" maskUnits="userSpaceOnUse" x="0" y="0" width="1440" height="1016">
<rect width="1440" height="1016" fill="url(#paint2_linear_895_1247)"/>
</mask>
<g mask="url(#mask0_895_1247)">
<g style="mix-blend-mode:lighten">
<ellipse cx="1311" cy="52.4999" rx="253" ry="246.5" transform="rotate(21.1741 1311 52.4999)" fill="url(#paint3_linear_895_1247)"/>
</g>
<g style="mix-blend-mode:lighten" filter="url(#filter0_d_895_1247)">
<ellipse cx="550.935" cy="828.77" rx="227" ry="221" transform="rotate(-172.491 550.935 828.77)" fill="url(#paint4_linear_895_1247)"/>
</g>
<g filter="url(#filter1_d_895_1247)">
<circle cx="1288.49" cy="646.614" r="175" transform="rotate(-61.3416 1288.49 646.614)" fill="url(#paint5_linear_895_1247)"/>
</g>
<circle cx="346.37" cy="292.37" r="400.205" transform="rotate(-47.6501 346.37 292.37)" fill="url(#paint6_linear_895_1247)"/>
<g style="mix-blend-mode:color-dodge" opacity="0.3">
<path d="M642.407 293.691C589.95 259.749 575.732 188.393 610.737 134.294C645.742 80.1956 716.658 63.926 769.115 97.8686C821.572 131.811 835.79 203.167 800.785 257.266C765.78 311.364 694.864 327.634 642.407 293.691Z" stroke="url(#paint7_linear_895_1247)" stroke-width="2"/>
</g>
<g style="mix-blend-mode:color-dodge" opacity="0.3">
<circle cx="1159.08" cy="578.08" r="289.781" transform="rotate(122.905 1159.08 578.08)" stroke="url(#paint8_linear_895_1247)" stroke-width="6" stroke-dasharray="4 4"/>
</g>
</g>
</g>
<defs>
<filter id="filter0_d_895_1247" x="302.011" y="589.641" width="493.847" height="482.26" filterUnits="userSpaceOnUse" color-interpolation-filters="sRGB">
<feFlood flood-opacity="0" result="BackgroundImageFix"/>
<feColorMatrix in="SourceAlpha" type="matrix" values="0 0 0 0 0 0 0 0 0 0 0 0 0 0 0 0 0 0 127 0" result="hardAlpha"/>
<feOffset dx="-2" dy="2"/>
<feGaussianBlur stdDeviation="10"/>
<feComposite in2="hardAlpha" operator="out"/>
<feColorMatrix type="matrix" values="0 0 0 0 0 0 0 0 0 0 0 0 0 0 0 0 0 0 0.25 0"/>
<feBlend mode="normal" in2="BackgroundImageFix" result="effect1_dropShadow_895_1247"/>
<feBlend mode="normal" in="SourceGraphic" in2="effect1_dropShadow_895_1247" result="shape"/>
</filter>
<filter id="filter1_d_895_1247" x="1085.46" y="443.581" width="410.066" height="410.066" filterUnits="userSpaceOnUse" color-interpolation-filters="sRGB">
<feFlood flood-opacity="0" result="BackgroundImageFix"/>
<feColorMatrix in="SourceAlpha" type="matrix" values="0 0 0 0 0 0 0 0 0 0 0 0 0 0 0 0 0 0 127 0" result="hardAlpha"/>
<feOffset dx="2" dy="2"/>
<feGaussianBlur stdDeviation="15"/>
<feComposite in2="hardAlpha" operator="out"/>
<feColorMatrix type="matrix" values="0 0 0 0 0 0 0 0 0 0 0 0 0 0 0 0 0 0 0.25 0"/>
<feBlend mode="normal" in2="BackgroundImageFix" result="effect1_dropShadow_895_1247"/>
<feBlend mode="normal" in="SourceGraphic" in2="effect1_dropShadow_895_1247" result="shape"/>
</filter>
<linearGradient id="paint0_linear_895_1247" x1="1256.11" y1="540.865" x2="1007.98" y2="437.359" gradientUnits="userSpaceOnUse">
<stop offset="0.0702472" stop-color="#DA880C"/>
<stop offset="1" stop-color="#FFD596"/>
</linearGradient>
<linearGradient id="paint1_linear_895_1247" x1="200" y1="93.3334" x2="1593.75" y2="700.287" gradientUnits="userSpaceOnUse">
<stop offset="0.0572917" stop-color="#FFD596"/>
<stop offset="1" stop-color="#DA880C"/>
</linearGradient>
<linearGradient id="paint2_linear_895_1247" x1="200" y1="93.3334" x2="1593.75" y2="700.287" gradientUnits="userSpaceOnUse">
<stop offset="0.0572917" stop-color="#FFD596"/>
<stop offset="1" stop-color="#DA880C"/>
</linearGradient>
<linearGradient id="paint3_linear_895_1247" x1="1520.53" y1="519.846" x2="1091.5" y2="-249.492" gradientUnits="userSpaceOnUse">
<stop stop-color="#FFD596" stop-opacity="0.68"/>
<stop offset="1" stop-color="#DA880C" stop-opacity="0.68"/>
</linearGradient>
<linearGradient id="paint4_linear_895_1247" x1="445.459" y1="771.333" x2="903.052" y2="1319.73" gradientUnits="userSpaceOnUse">
<stop stop-color="#FFD596"/>
<stop offset="1" stop-color="#EEAC49"/>
</linearGradient>
<linearGradient id="paint5_linear_895_1247" x1="1215.31" y1="1007.61" x2="1453.61" y2="184.639" gradientUnits="userSpaceOnUse">
<stop stop-color="#FFD596"/>
<stop offset="1" stop-color="#DA880C"/>
</linearGradient>
<linearGradient id="paint6_linear_895_1247" x1="623.877" y1="1083.54" x2="285.475" y2="50.1634" gradientUnits="userSpaceOnUse">
<stop offset="0.00143425" stop-color="#DA880C"/>
<stop offset="1" stop-color="#FFD596"/>
</linearGradient>
<linearGradient id="paint7_linear_895_1247" x1="907.116" y1="443.233" x2="687.006" y2="43.8158" gradientUnits="userSpaceOnUse">
<stop offset="0.0702472" stop-color="#DA880C"/>
<stop offset="1" stop-color="#FFD596"/>
</linearGradient>
<linearGradient id="paint8_linear_895_1247" x1="1403.94" y1="-200.097" x2="841.711" y2="816.227" gradientUnits="userSpaceOnUse">
<stop offset="0.0702472" stop-color="#DA880C"/>
<stop offset="1" stop-color="#FFD596"/>
</linearGradient>
<clipPath id="clip0_895_1247">
<rect width="1440" height="787" fill="white"/>
</clipPath>
</defs>
</svg>
